<svg xmlns="http://www.w3.org/2000/svg" 
     viewBox="0 0 500 500">
    <circle style="fill: #fa3d79;"
            cx="250" cy="250" r="250"/>
    <path style="fill: #a41525;"
          d="M255,0.1c-21.2-0.4-54.9,1.6-93.1,15.9c-16.5,6.2-44.8,18.9-73.8,43.6c-30.5,26-48,53.4-56.6,69c-8.8,15.8-25.8,50.5-30.3,98.2c-3.6,38.3,2.4,68.8,6.4,84.5C16,344.8,29.8,370,40.2,386C110.1,340.6,180,295.3,250,250C251.7,166.7,253.3,83.4,255,0.1z"/>
    <path style="fill: #ea2c64;"
          d="M463.2,380.7c8.8-14.3,18.6-33.4,25.8-57c4.3-14,11-40.2,11-73.7c0-16.1-1.6-37.2-7.6-61.1c-6.2-24.6-14.8-43.2-20.6-54.3c-7.6-14.6-25.8-46.1-60-75.2c-17-14.5-32.7-23.9-42.6-29.3c-10.3-5.6-26.5-13.4-47.2-19.6C294.8,2.4,270,0,250,0c0,83.3,0,166.7,0,250C321.1,293.6,392.1,337.1,463.2,380.7z"/>
    <path style="fill: #eb2337;"
          d="M33.4,375c9.4,16.1,23,35.6,42.6,54.5c26.6,25.8,53,39.9,67.5,46.7c7.6,3.6,20.9,9.3,38.2,14.2c20.2,5.7,45.5,10.1,74.4,9.4c24.6-0.6,44.6-4.7,57.7-8.2c27.2-7.2,48.5-17.7,63-26.3c11.5-6.8,34.8-21.8,57.9-47c16.2-17.7,26.8-35,29.4-39.3c1-1.7,1.9-3.2,2.5-4.1c-72.2-41.6-144.3-83.3-216.5-124.9C177.9,291.7,105.6,333.4,33.4,375z"/>
    <polygon style="fill: #fa3d79;"
             points="250,63 88.1,343.5 411.9,343.5"/>
</svg>