<svg xmlns="http://www.w3.org/2000/svg"
     viewBox="0 0 500 950">
    <path style="fill: #cf8985;"
          d="M250,950l250-250C416.7,466.7,333.3,233.3,250,0C166.7,233.3,83.3,466.7,0,700L250,950z"/>
    <path style="fill: #feef5c;"
          d="M250,775c83.3-25,166.7-50,250-75C416.7,466.7,333.3,233.3,250,0C166.7,233.3,83.3,466.7,0,700C83.3,725,166.7,750,250,775z"/>
    <path style="fill: #fe4204;"
          d="M250.5,775c83.3-25,166.7-50,250-75c-83.3-233.3-166.7-466.7-250-700C250.5,258.3,250.5,516.7,250.5,775z"/>
</svg>