<svg xmlns="http://www.w3.org/2000/svg"
     viewBox="0 0 228 345">
    <path style="fill: #0e694f;"
          d="M114,0c104.3,112.1,139.2,234,95.7,295c-16.1,22.6-52.5,50.4-96.8,50c-43.6-0.4-79-27.8-94.8-50C-25.2,233.9,10,112.2,114,0z"/>
    <path style="fill: #38c070;"
          d="M218.9,172c0.6,2.2,1.4,4.9,2.2,8c1.2,4.8,2.1,8.6,2.4,10c1.1,5,1.7,8.8,1.9,10c0.8,5,1.3,8.9,1.4,10c0.9,7.7,1.1,13.6,1.1,15c0.2,7.7-0.1,13.5-0.2,15c-0.3,5.1-0.8,8.8-1,10c-0.7,5.1-1.6,8.9-1.8,10c-1.2,5.1-2.4,8.9-2.7,10c-1.7,5.1-3.3,8.8-3.9,10c-2.2,4.9-4.4,8.5-5.3,10c-1.3,2.2-2.5,3.9-3.3,5c-0.4,0.6-1.8,2.5-3.8,5c-0.5,0.6-2.8,3.4-5.9,6.6c-6.7,7-13.7,12.3-15.1,13.4c-6.1,4.6-11.5,7.8-14.9,9.7c-4.4,2.5-8,4.1-10,5c-7.1,3.2-12.8,5-15,5.6c-4.6,1.4-8.2,2.1-10,2.5c-4.6,0.9-8.2,1.4-10,1.5c-2.5,0.3-6.3,0.6-11,0.6c-1.8,0-3.3,0-4-0.1c-1.9-0.1-5.5-0.2-10-0.8c-1.1-0.1-2.8-0.4-5-0.8c-1.1-0.2-2.8-0.5-5-1c-1-0.2-2.8-0.7-5-1.3c-1.1-0.3-2.8-0.8-5-1.5c-0.9-0.3-2.7-0.9-5-1.8c-2.2-0.8-5.7-2.2-10-4.3c-2.3-1.1-5-2.5-8-4.2c-0.4-6.2-4.2-83,57-129.4C158.1,166.5,207.3,170.7,218.9,172z"/>
</svg>