<svg xmlns="http://www.w3.org/2000/svg" 
     viewBox="0 0 500 500">
    <circle style="fill: #b1fdea;"
            cx="250" cy="250" r="250"/>
    <path style="fill: #2e6f69;"
          d="M121.1,464.3C140.5,475.9,185,499,246.2,500c64.3,1,111.4-23.2,130.8-34.6c-42.3-71.8-84.7-143.6-127-215.4C207,321.4,164.1,392.8,121.1,464.3z"/>
    <path style="fill: #818caa;"
          d="M0.1,243.4c-0.6,22.3,1,73.7,31.5,128.4c30.7,55.2,74,83.6,93.4,94.8c41.7-72.2,83.4-144.4,125-216.5C166.7,247.8,83.4,245.6,0.1,243.4z"/>
    <path style="fill: #e4e0f8;"
          d="M126.1,32.8c-19.6,11.2-60.3,37.9-90.8,89C3.1,175.8,0,227.4,0,250c83.3,0,166.7,0,250,0C208.7,177.6,167.4,105.2,126.1,32.8z"/>
    <path style="fill: #8d899f;"
          d="M377.7,35.1c-19.4-11.5-63.5-34.1-124-35c-63-0.9-109.2,22.2-128.8,33.4C222.2,202.9,249.5,249.9,250,250l0,0C292.6,178.4,335.2,106.7,377.7,35.1z"/>
    <path style="fill: #57938c;"
          d="M499.9,258c0.7-22.3-0.6-74.3-31.5-129.8c-30.7-55.2-74-83.6-93.3-94.8C333.4,105.7,291.7,177.8,250,250C333.3,252.7,416.6,255.3,499.9,258z"/>
    <path style="fill: #80c6ba;"
          d="M375,466.5c19.6-11.3,59.6-38,89.6-88.3c32.3-54,35.3-105.6,35.4-128.2c-83.3,0-166.7,0-250,0C291.7,322.2,333.3,394.4,375,466.5z"/>
    <polygon style="fill: #b1fdea;"
             points="312.5,141.7 375,250 312.5,358.3 187.5,358.3 125,250 187.5,141.7"/>
</svg>