<svg xmlns="http://www.w3.org/2000/svg"
     viewBox="0 0 500 500">
    <circle style="fill: #b825ff;"
            cx="250" cy="250" r="250"/>
    <path style="fill: #881cff;"
          d="M432.4,79c-15.8-16.8-53.6-52.3-114.1-69.5C248.8-10.3,191.2,6,170.7,12.9c-69,23.1-107.4,69.4-120.5,86.9C116.8,149.8,183.4,199.9,250,250C310.8,193,371.6,135.9,432.4,79z"/>
    <path style="fill: #7c0ef5;"
          d="M422.3,431.2c16.4-15.6,49.3-51.1,66.7-107.5c18.8-61,9-112.7,3.4-134.8c-15.4-61.1-49.7-99.8-65.6-115.7C367.9,132.1,308.9,191.1,250,250C307.4,310.4,364.8,370.8,422.3,431.2z"/>
    <path style="fill: #6f07e0;"
          d="M68.6,422c18,18.7,55.5,52.2,113.1,68.5c10,2.8,104.4,27.9,195.1-25c22.6-13.2,39.2-27.9,50-38.7C367.9,367.9,309,309,250.1,250.1C189.5,307.4,129.1,364.7,68.6,422z"/>
    <path style="fill: #4501ac;"
          d="M73.2,73.2c-14.7,14.7-35.4,39-51.1,73.9c-34.7,77-18.7,147.5-14.6,164.1c15.1,59.9,48.8,98.5,65.7,115.6C132.1,367.9,191.1,308.9,250,250C191.1,191.1,132.2,132.2,73.2,73.2z"/>
    <rect style="fill: #b825ff;"
          x="150" y="150.1"
          width="200" height="200"/>
</svg>