<svg xmlns="http://www.w3.org/2000/svg"
     viewBox="0 0 500 500">
    <circle style="fill: #fdaee9;"
            cx="250" cy="250" r="250"/>
    <path style="fill: #fd699a;"
          d="M108.3,456c18.3,12.6,68.3,43.3,139.2,44c75,0.7,127.7-32.5,145.7-45c-24.1-32-48.1-64.2-72-96.4c-23.8-32.1-47.5-64.4-71.1-96.7c-23.5,32.4-47,64.8-70.7,97.2C155.7,391.4,132,423.7,108.3,456z"/>
    <path style="fill: #fc7cc5;"
          d="M9.7,180.9c-6.3,21.9-19.2,78.4,1.9,144.9c24.6,77.3,79.4,118.3,97.2,130.6c47.1-64.8,94.1-129.6,141.2-194.5c-2.4-0.8-60.1-20.2-120.2-40.5C69.7,201.2,12.1,181.7,9.7,180.9z"/>
    <path style="fill: #fec7f4;"
          d="M250.7,0c-0.2,0-0.4,0-0.7,0c-80.1-0.3-140.1,42.8-148.6,49.1C35.6,97.7,14.5,163.6,8.8,184c80.4,26,160.8,51.9,241.2,77.9c0-43.6,0.1-87.3,0.2-130.9C250.3,87.3,250.5,43.6,250.7,0z"/>
    <path style="fill: #fc69b0;"
          d="M492.5,189.1c-5-20.1-24.3-86.2-89-136.5C339.1,2.6,270.8,0,250,0c0,87.3,0,174.6,0,261.9c30-9,91.2-27.3,121.3-36.4C401.3,216.5,462.5,198.1,492.5,189.1z"/>
    <path style="fill: #fc7cd0;"
          d="M391.6,456c17.9-12.3,69.5-51.3,94.8-124.4c23.5-68.2,10.6-126.6,4.7-148c-40.2,13.1-80.4,26.1-120.6,39.2c-40.2,13-80.3,26.1-120.5,39.1C297.2,326.6,344.4,391.3,391.6,456z"/>
    <polygon style="fill: #fdaee9;"
             points="250,136.9 130.9,223.3 176.4,363 323.5,363 369,223.3 "/>
</svg>