<svg xmlns="http://www.w3.org/2000/svg"
     viewBox="0 0 270 400">
    <path style="fill: #1a77a6;"
          d="M270,200c0,0,0,9.8-2,20c-6.2,31.4-60.2,132.9-108,170c-5,3.9-13.7,10-25,10c-11.5,0-20.2-6.3-25-10c-28.4-22.2-54.7-63.2-61.2-73.6c0,0-40.4-63.7-46.8-96.5c-2-10.2-2-20-2-20s0-9.8,2-20C8.1,148.5,62.2,47.1,110,10c5-3.9,13.7-10,25-10c11.3,0,20,6.1,25,10c47.8,37.1,101.8,138.6,108,170C270,190.2,270,200,270,200z"/>
    <path style="fill: #134b8d;"
          d="M135,200c-45,0-90,0-135,0c0-0.2,0-0.6,0-1c0.1-2.9,0.3-7.7,1.1-13.5c0.2-1.8,0.5-3.3,0.9-5.5c0.5-2.3,1.1-4.7,2.1-7.8c0.6-2.1,1.8-5.5,4-11.3c2.8-7.2,5.3-12.6,7-16.3c1.7-3.8,3.2-6.8,4-8.5c0.5-1,2.3-4.7,4.8-9.5c0,0,4.3-8.2,9.1-16.8c0.5-0.9,1-1.8,1-1.8c0.9-1.6,1.7-2.9,2.1-3.7c0.1-0.2,1.3-2.2,2.5-4.4c4.5-7.6,9-14.7,9-14.7c1.8-2.8,3.2-5,3.7-5.8c3.5-5.3,6.2-9.4,7.2-10.8c4.6-6.7,8.6-12.1,10.1-14.1c0.2-0.2,1.6-2.1,3.4-4.5c0.5-0.7,0.8-1.1,0.9-1.2c0.4-0.5,1.9-2.4,4.3-5.4c1.3-1.5,2.2-2.7,2.6-3.2c2.4-2.9,3.9-4.7,4.2-4.9c0,0,0.2-0.3,0.5-0.6c0.1-0.2,0.3-0.3,0.3-0.3c0.6-0.7,2.8-3.2,6-6.6c1.2-1.3,2.1-2.2,2.3-2.4c1.5-1.6,2.7-2.7,3.1-3.1c1.7-1.7,3-3,3.4-3.3c2.9-2.8,5.3-4.8,5.8-5.2c2.1-1.8,3.7-3,4.5-3.7c1.8-1.4,3-2.2,4.1-3c0.3-0.2,0.7-0.5,1.3-0.8c2.1-1.3,3.8-2.2,4.4-2.5c0.1-0.1,0.8-0.4,1.5-0.7c1.7-0.8,6.5-2.8,12.7-3c0.4,0,0.8,0,1,0C135,66.7,135,133.3,135,200z"/>
    <path style="fill: #195da2;"
          d="M135,200c45,0,90,0,135,0c0-0.2,0-0.6,0-1c-0.1-2.9-0.3-7.7-1.1-13.5c-0.2-1.8-0.5-3.3-0.9-5.5c-0.5-2.3-1.1-4.7-2.1-7.8c-0.6-2.1-1.8-5.5-4-11.3c-2.8-7.2-5.3-12.6-7-16.3c-1.7-3.8-3.2-6.8-4-8.5c-0.5-1-2.3-4.7-4.8-9.5c0,0-4.3-8.2-9.1-16.8c-0.5-0.9-1-1.8-1-1.8c-0.9-1.6-1.7-2.9-2.1-3.7c-0.1-0.2-1.3-2.2-2.5-4.4c-4.5-7.6-9-14.7-9-14.7c-1.8-2.8-3.2-5-3.7-5.8c-3.5-5.3-6.2-9.4-7.2-10.8c-4.6-6.7-8.6-12.1-10.1-14.1c-0.2-0.2-1.6-2.1-3.4-4.5c-0.5-0.7-0.8-1.1-0.9-1.2c-0.4-0.5-1.9-2.4-4.3-5.4c-1.3-1.5-2.2-2.7-2.6-3.2c-2.4-2.9-3.9-4.7-4.2-4.9c0,0-0.2-0.3-0.5-0.6c-0.1-0.2-0.3-0.3-0.3-0.3c-0.6-0.7-2.8-3.2-6-6.6c-1.2-1.3-2.1-2.2-2.3-2.4c-1.5-1.6-2.7-2.7-3.1-3.1c-1.7-1.7-3-3-3.4-3.3c-2.9-2.8-5.3-4.8-5.8-5.2c-2.1-1.8-3.7-3-4.5-3.7c-1.8-1.4-3-2.2-4.1-3c-0.3-0.2-0.7-0.5-1.3-0.8c-2.1-1.3-3.8-2.2-4.4-2.5c-0.1-0.1-0.8-0.4-1.5-0.7c-1.7-0.8-6.5-2.8-12.7-3c-0.4,0-0.8,0-1,0C135,66.7,135,133.3,135,200z"/>
    <path style="fill: #5880b6;"
          d="M135,150c-45,16.7-90,33.3-135,50c0,0.2,0,0.6,0,1c0.1,2.9,0.3,7.7,1.1,13.5c0.2,1.8,0.5,3.3,0.9,5.5c0.5,2.3,1.1,4.7,2.1,7.8c0.6,2.1,1.8,5.5,4,11.3c2.8,7.2,5.3,12.6,7,16.3c1.7,3.8,3.2,6.8,4,8.5c0.5,1,2.3,4.7,4.8,9.5c0,0,4.3,8.2,9.1,16.8c0.5,0.9,1,1.8,1,1.8c0.9,1.6,1.7,2.9,2.1,3.7c0.1,0.2,1.3,2.2,2.5,4.4c4.5,7.6,9,14.7,9,14.7c1.8,2.8,3.2,5,3.7,5.8c3.5,5.3,6.2,9.4,7.2,10.8c4.6,6.7,8.6,12.1,10.1,14.1c0.2,0.2,1.6,2.1,3.4,4.5c0.5,0.7,0.8,1.1,0.9,1.2c0.4,0.5,1.9,2.4,4.3,5.4c1.3,1.5,2.2,2.7,2.6,3.2c2.4,2.9,3.9,4.7,4.2,4.9c0,0,0.2,0.3,0.5,0.6c0.1,0.2,0.3,0.3,0.3,0.3c0.6,0.7,2.8,3.2,6,6.6c1.2,1.3,2.1,2.2,2.3,2.4c1.5,1.6,2.7,2.7,3.1,3.1c1.7,1.7,3,3,3.4,3.3c2.9,2.8,5.3,4.8,5.8,5.2c2.1,1.8,3.7,3,4.5,3.7c1.8,1.4,3,2.2,4.1,3c0.3,0.2,0.7,0.5,1.3,0.8c2.1,1.3,3.8,2.2,4.4,2.5c0.1,0.1,0.8,0.4,1.5,0.7c1.7,0.8,6.5,2.8,12.7,3c0.4,0,0.8,0,1,0C135,316.7,135,233.3,135,150z"/>
    <path style="fill: #134b8d;"
          d="M135,150c45,16.7,90,33.3,135,50c0,0.2,0,0.6,0,1c-0.1,2.9-0.3,7.7-1.1,13.5c-0.2,1.8-0.5,3.3-0.9,5.5c-0.5,2.3-1.1,4.7-2.1,7.8c-0.6,2.1-1.8,5.5-4,11.3c-2.8,7.2-5.3,12.6-7,16.3c-1.7,3.8-3.2,6.8-4,8.5c-0.5,1-2.3,4.7-4.8,9.5c0,0-4.3,8.2-9.1,16.8c-0.5,0.9-1,1.8-1,1.8c-0.9,1.6-1.7,2.9-2.1,3.7c-0.1,0.2-1.3,2.2-2.5,4.4c-4.5,7.6-9,14.7-9,14.7c-1.8,2.8-3.2,5-3.7,5.8c-3.5,5.3-6.2,9.4-7.2,10.8c-4.6,6.7-8.6,12.1-10.1,14.1c-0.2,0.2-1.6,2.1-3.4,4.5c-0.5,0.7-0.8,1.1-0.9,1.2c-0.4,0.5-1.9,2.4-4.3,5.4c-1.3,1.5-2.2,2.7-2.6,3.2c-2.4,2.9-3.9,4.7-4.2,4.9c0,0-0.2,0.3-0.5,0.6c-0.1,0.2-0.3,0.3-0.3,0.3c-0.6,0.7-2.8,3.2-6,6.6c-1.2,1.3-2.1,2.2-2.3,2.4c-1.5,1.6-2.7,2.7-3.1,3.1c-1.7,1.7-3,3-3.4,3.3c-2.9,2.8-5.3,4.8-5.8,5.2c-2.1,1.8-3.7,3-4.5,3.7c-1.8,1.4-3,2.2-4.1,3c-0.3,0.2-0.7,0.5-1.3,0.8c-2.1,1.3-3.8,2.2-4.4,2.5c-0.1,0.1-0.8,0.4-1.5,0.7c-1.7,0.8-6.5,2.8-12.7,3c-0.4,0-0.8,0-1,0C135,316.7,135,233.3,135,150z"/>
    <path style="fill: #1a77a6;"
          d="M216,180c0,0,0,5.9-1.2,12c-3.7,18.9-36.1,79.7-64.8,102c-3,2.3-8.2,6-15,6c-6.9,0-12.1-3.8-15-6c-17.1-13.3-32.8-37.9-36.7-44.1c0,0-24.2-38.2-28.1-57.9c-1.2-6.1-1.2-12-1.2-12c0,0,0-5.9,1.2-12c3.7-18.9,36.1-79.7,64.8-102c3-2.3,8.2-6,15-6c6.8,0,12,3.7,15,6c28.7,22.3,61.1,83.1,64.8,102C216,174.1,216,180,216,180z"/>
</svg>