<svg xmlns="http://www.w3.org/2000/svg"
    viewBox="0 0 400 225">
    <path style="fill: #87fa4b;"
          d="M399.5,40c0.2,1.7,0.3,3.3,0.5,5c-0.2,0.9-0.5,2.7-1,5c0,0-2.3,10-7,20c-7.7,16.4-84.4,114-157.9,147c-8.1,3.6-19.5,8-34.1,8c-14.5,0-25.9-4.4-34-8C91.9,183.6,16.7,84.5,8,70c-6-9.9-7.5-20-7.5-20C0.2,47.7,0,45.9,0,45c0.2-1.7,0.3-3.3,0.5-5c1.8-8.4,5.2-13.9,7.8-17.2C25.7,0.1,66,0,99,0c0,0,0,0,0,0c49-0.1,80.5,0,101,0c71.2,0,58.1-0.5,84.6-0.2C348.9,0.6,377.5,3.1,392,23C396.6,29.4,398.6,35.8,399.5,40z"/>
    <path style="fill: #f2fe96;"
          d="M359.8,31.1c0.1,0.7,0.1,1.3,0.2,2c-0.1,0.4-0.2,1.1-0.4,2c0,0-0.9,4-2.8,8c-3.1,6.6-33.8,45.6-63.2,58.8c-3.2,1.5-7.8,3.2-13.6,3.2c-5.8,0-10.4-1.7-13.6-3.2c-29.7-13.3-59.7-53-63.2-58.8c-2.4-4-3-8-3-8c-0.1-0.9-0.2-1.6-0.2-2c0.1-0.7,0.1-1.3,0.2-2c0.7-3.4,2.1-5.6,3.1-6.9c7-9.1,23.1-9.1,36.3-9.1c0,0,0,0,0,0c19.6,0,32.2,0,40.4,0c28.5,0,23.2-0.2,33.9-0.1c25.7,0.3,37.2,1.3,42.9,9.3C358.6,26.8,359.4,29.4,359.8,31.1z"/>
</svg>