<svg xmlns="http://www.w3.org/2000/svg"
     viewBox="0 0 500 500">
    <rect style="fill: #ebeb31;"
          x="75" y="75"
          width="350" height="350"
          transform="matrix(0.7071 -0.7071 0.7071 0.7071 -103.551 249.999)"/>
    <path style="fill: #eee966;"
          d="M250,179.4c0,106,0,212.1,0,318.1L2.5,250C85,226.5,167.5,202.9,250,179.4z"/>
    <path style="fill: #d7c62d;"
          d="M497.5,250L250,497.5c0-106,0-212.1,0-318.1C332.5,202.9,415,226.5,497.5,250z"/>
    <path style="fill: #c2c018;"
          d="M250,2.5L497.5,250c-82.5-10.9-165-21.8-247.5-32.7C250,145.7,250,74.1,250,2.5z"/>
    <path style="fill: #edeba0;"
          d="M250,2.5c0,71.6,0,143.2,0,214.8C167.5,228.2,85,239.1,2.5,250L250,2.5z"/>
    <rect style="fill: #ebeb31;"
          x="127.5" y="117.5"
          width="245" height="245"
          transform="matrix(0.7071 -0.7071 0.7071 0.7071 -96.4823 247.0711)"/>
</svg>