<svg xmlns="http://www.w3.org/2000/svg"
     viewBox="0.494 0 1080.486 411.002"
     width="1080.486px" height="411.002px">
    <path fill="#ffd232"
          d="M914.501,5.6c5.801-1.6,13.301-0.8,16.5,4.9c2.398,6.9,2.601,14.2,3.601,21.3c1,8.9,2.2,17.8,3.1,26.7c10.103,0.4,20.2,0,30.4,0.1c6.899,0,13.899-0.1,20.8,0.1c4.2,0,8,2.4,10.102,6c0.301,1.5,0.601,3,0.801,4.5c-54.103,5.1-106.9,20.4-156.9,41.5c-10-8.6-20.8-16.3-30.897-24.7c-3.9-3.3-5.2-8.6-4.4-13.5c1.7-8,9.3-13.8,17.4-14c15.697-0.1,31.3,0,46.897,0c1.2-0.1,3,0.6,3.603-0.9c7.8-12.3,15.397-24.7,23.1-37C902.501,14.4,907.199,7.8,914.501,5.6z"/>
    <path fill="#9c8fc5"
          stroke="#9c8fc5"
          stroke-width="0.0938"
          d="M931.001,10.5c1.101,0.7,2.101,1.6,3,2.5c9.601,9.7,19.601,19.1,29.101,28.9c4.1,4.5,4.2,11,5,16.7c-10.2-0.1-20.3,0.3-30.4-0.1c-0.897-8.9-2.1-17.8-3.1-26.7C933.6,24.7,933.4,17.4,931.001,10.5z"/>
    <path fill="#f9ffab"
          d="M542.6,68.6c6.3-6.7,16.2-11.3,25.4-8.6c3.8,0.9,6.897,3.6,9.3,6.7c3.3,6.7,2.7,14.9-1.3,21.3c-4.103,6.1-8.4,12.1-12.603,18.2c-11.8-5.4-23.1-11.8-33.5-19.5C534.199,80.7,538.001,74.4,542.6,68.6z"/>
    <path fill="#fffcd8"
          stroke="#fffcd8"
          stroke-width="0.0938"
          d="M82.4,77.5c8.8-9.9,21.3-16.9,34.6-17.7c35.3,0,70.602,0,106,0c5.899,0,12,3.4,14.2,9c2.8,6.1,1.1,13.1-2.2,18.6c-4.898,7.8-13.5,13.7-22.898,13.7c-13.2,0-26.302,0-39.399,0c0.3,0.4,0.8,1.2,1.101,1.6c18.5,28.4,37.5,56.4,55.199,85.3c5.602,8.6,8.2,19,7.301,29.3c-5,21.2-10.699,42.2-15.899,63.4c-13.899,0.1-27.899,0-41.899,0c5,4.7,10.399,8.8,15.602,13.2c-23.5,3.397-47.5,3.5-71.102,0.8c3.602-14.101,7.102-28.2,10.7-42.3c-28.2,0-56.5,0-84.7,0c-5.3-0.103-10.8,0.5-16-1.301C22.4,248.1,13.9,239.6,9.4,229.7c-5.8-12.4-5.199-27.6,2-39.3c6.2-10.7,17.7-19.4,30.601-19c21.3,0.1,42.602-0.2,63.899,0.2c-7.8-13.1-16.7-25.7-24.8-38.6c-4-6.4-9.302-12.4-10.399-20.1C68.5,100.1,74,87,82.4,77.5z"/>
    <path fill="#fffcd8"
          stroke="#fffcd8"
          stroke-width="0.0938"
          d="M242.4,84.1c1.2-11.5,10.5-21.2,21.601-23.8c4-0.9,8-0.4,12.102-0.5c22.3,0,44.6,0,66.9,0c5,0,9.8,2.5,12.897,6.4c6,10,0.5,22.7-8.2,29.2c-3.698,2.7-7.897,4.9-12.6,5.5c-3.9,0.7-8-0.3-12,0.5c-4.2,16.2-8.2,32.4-12.2,48.6c-0.898,3.4-1.5,6.8-3.3,9.8c-7.7,12.3-24.399,17.7-38.102,13.5c-5.5-1.6-10.8-5.9-11.8-11.8c-0.801-3.2,0.1-6.4,0.8-9.6c2.3-8.8,4.399-17.6,6.8-26.4c0.802-3.4,1.602-6.8,2.602-10.2c1-4.8,2.5-9.4,3.5-14.2c-7.399-0.5-15.399,1.5-22.102-2.4C244.4,95.7,242,89.7,242.4,84.1z"/>
    <path fill="#fffcd8"
          stroke="#fffcd8"
          stroke-width="0.0938"
          d="M364.1,73.5c4.5-6.9,11.7-11.9,19.8-13.3c3.7-0.6,7.4-0.3,11.103-0.4c17.397,0,34.697,0,52,0c1.8-0.1,3.6,0.2,5.3,0.5c-2.7,11.9-6.7,23.5-10.5,35.1c-14.4,0.3-28.8,0-43.2,0.2c-0.4,1.3-0.8,2.5-1.2,3.8c14.2,0.3,28.4,0.2,42.603,0.1c-4.7,12.3-10.7,24.1-16.5,35.9c-11.603-0.2-23.303-0.2-35-0.1c-0.4,1.4-0.7,2.8-1,4.2c11.1-0.2,22.3,0.1,33.5-0.1c-6.9,12.5-15.103,24.1-23.4,35.7c-12.2-0.1-24.4,0-36.6,0c-4.9-0.1-10-1.6-13.9-4.8c-4.7-4.7-5.6-12-4-18.3c2.1-8.5,4.2-17,6.4-25.5c1.8-8,3.897-15.8,5.897-23.7c1.8-7,3.603-14,5.3-21C361.4,78.9,362.4,76,364.1,73.5z"/>
    <path fill="#ffd232"
          d="M452.302,60.3c2.7,0.9,5.1,2.6,6.7,4.9c5.3,9.5-0.4,21.1-8.7,26.7c-2.603,1.7-5.5,2.9-8.5,3.5C445.6,83.8,449.6,72.2,452.302,60.3z"/>
    <path fill="#ffd232"
          d="M468.002,73.2c4-6.7,11-11.8,18.897-13c6.4-1.3,13.603,1.6,17,7.4c3.5,14.3,5.7,28.9,8.7,43.4c5.398-6.5,9.8-13.8,14.7-20.7c0.8-1.2,1.698-2.4,2.6-3.6c10.4,7.7,21.7,14.1,33.5,19.5c-11.5,16.6-22.8,33.2-34.3,49.8c-2.9,4.2-5.5,8.7-9.4,12c-9.8,7.6-23.897,9.5-35.1,4.1c-1.7-1.6-3.3-3.1-4.9-4.7c-1.397-3.2-2-6.6-2.5-10c-2.199-13.5-4.8-26.9-7.1-40.4c-0.5-3.1-1.2-6.1-1.7-9.1c-1-7-2.5-14-3.6-21C464.002,82.2,465.699,77.4,468.002,73.2z"/>
    <path fill="#f9ffab"
          d="M584.802,73.2c5.397-8.4,15.2-13.7,25.2-13.6c19.697,0,39.3,0,59,0.1c4.5-0.1,8.6,2.5,11.197,6.1C685.501,78,675.9,92,663.9,95.1c-15,0.8-29.897,0-44.897,0.4c-0.2,1.1-0.5,3.1-0.7,4.2c13.897-0.1,27.7-0.2,41.5,0c5,0.1,8.897,3.9,11.2,8c1.197,4.7,0.897,9.8-1.4,14.1c-32.2,2.2-65.1-0.2-95.5-11.6c2.4-9.7,4.9-19.4,7.3-29.2C582.1,78.3,583.302,75.6,584.802,73.2z"/>
    <path fill="#f9ffab"
          d="M688.4,73.1c5.2-8.1,14.7-13.9,24.5-13.2c6.103,0.5,11.5,4.2,15.103,9c7.397,10.2,15.397,20,22.897,30c-23.8,11.6-49.5,18.9-75.7,22.1c0.603-2.7,1.2-5.4,1.9-8c0.4-1.6,0.8-3.3,1.3-4.9c2.2-9.1,4.5-18.1,6.8-27.2C685.9,78.2,687.001,75.5,688.4,73.1z"/>
    <path fill="#f9ffab"
          d="M765.6,69.5c4.9-6.1,12.6-9.6,20.4-10c5.197,0.1,10.5,2.1,14,6.1C786.6,77.2,772.4,88,756.501,96c0.101-0.3,0.198-0.9,0.301-1.2C759.501,86.4,759.6,76.6,765.6,69.5z"/>
    <path fill="#9c8fc5"
          stroke="#9c8fc5"
          stroke-width="0.0938"
          d="M459.002,65.2c3,2.6,6,5.4,9,8c-2.303,4.2-4,9-3.2,13.7c1.1,7,2.6,14,3.6,21c-6.3-5-12-10.7-18.1-16C458.6,86.3,464.302,74.7,459.002,65.2z"/>
    <path fill="#9c8fc5"
          stroke="#9c8fc5"
          stroke-width="0.0938"
          d="M999.001,64.7c11.101,10.2,21.601,21.3,32.398,32c3.2,2.4,2.602,6.9,1.5,10.3c-1.8,5.3-6.2,9.2-11,11.8c-14.6,8.2-29.1,16.6-43.7,24.6c1,12.1,2.9,24,4.103,36.1c-8.603-0.6-17.801,0.1-24.9,5.4c-4.898-4-9.7-8.1-14.5-12.2c5-3.9,6.7-10.5,6.2-16.6c-1.4-15-3.601-30-5.101-45c15-8.4,29.898-16.9,44.801-25.3c6.1-3.3,10.8-9.6,11-16.6C999.6,67.7,999.302,66.2,999.001,64.7z"/>
    <path fill="#9c8fc5"
          stroke="#9c8fc5"
          stroke-width="0.0938"
          d="M355.9,66.2c2.9,2.2,5.5,4.8,8.2,7.3c-1.7,2.5-2.7,5.4-3.4,8.3c-1.697,7-3.5,14-5.3,21c-2.7-2.3-5.2-4.8-7.7-7.4C356.4,88.9,361.9,76.2,355.9,66.2z"/>
    <path fill="#9c8fc5"
          stroke="#9c8fc5"
          stroke-width="0.0938"
          d="M680.199,65.8c3.103,2.1,5.603,4.8,8.2,7.3c-1.398,2.4-2.5,5.1-3.2,7.8c-2.3,9.1-4.6,18.1-6.8,27.2c-4.898-4.3-9.7-8.6-14.5-13C675.9,92,685.501,78,680.199,65.8z"/>
    <path fill="#ffd232"
          d="M756.501,96c15.898-8,30.101-18.8,43.5-30.4c0.198,0.3,0.698,1,0.898,1.3c1.5,3.5,2.4,7.5,1.4,11.3c-5,20.3-10.2,40.5-15.302,60.8c-15.301,8.8-30.198,18.3-44.398,28.9c-9.5-12.6-18.9-25.3-28.3-37.9c-1.7,6.1-3.103,12.3-4.7,18.4c-1.102,4.2-1.8,8.5-3.9,12.2c-6.3,10.5-20.3,16.5-32,11.6c-2.6-2-5.397-4.1-6.5-7.3c-2.1-4.3-0.897-9.2,0.302-13.5c0.5-2.1,1-4.1,1.5-6.2c2.101-8.1,4.101-16.2,6.198-24.2c26.2-3.2,51.9-10.5,75.7-22.1c1.2,1.5,2.102,3.4,3.9,4.2C755.302,100.7,755.9,98.3,756.501,96z"/>
    <path fill="#9c8fc5"
          stroke="#9c8fc5"
          stroke-width="0.0938"
          d="M577.302,66.7c2.7,1.9,5,4.3,7.5,6.5c-1.5,2.4-2.7,5.1-3.4,7.8c-2.398,9.8-4.898,19.5-7.3,29.2c-3.3,13.6-6.9,27.3-10.3,40.9c-2,7-0.9,15.3,4.897,20.2c-3.697,5-7.3,10.3-10.897,15.4c-5.3-7.8-16.4-8.1-24.103-3.9c-4.697-4.9-9.397-9.9-14-14.8c3.9-3.3,6.5-7.8,9.4-12c11.5-16.6,22.8-33.2,34.3-49.8c4.2-6.1,8.5-12.1,12.603-18.2C580.001,81.6,580.6,73.4,577.302,66.7z"/>
    <path fill="#9c8fc5"
          stroke="#9c8fc5"
          stroke-width="0.0938"
          d="M800.9,66.9c2.5,1.5,4.3,3.9,6.7,5.6c-0.8,4.9,0.5,10.2,4.4,13.5c10.1,8.4,20.897,16.1,30.897,24.7c-9.1,13.7-17.5,28-26.3,41.9c-2.7,4.4-6.4,9-5.5,14.5c0.4,3.7,3.5,6.2,6.5,7.9c2.3,1.6,4.5,3.3,6.7,4.8c-6.7,0.2-13.4,0.1-20.2,0.1c-7.8-6.4-15.5-12.9-23.3-19.4c3.2-6.8,4.1-14.3,6.2-21.5c5.1-20.3,10.3-40.5,15.3-60.8C803.302,74.4,802.4,70.4,800.9,66.9z"/>
    <path fill="#9c8fc5"
          stroke="#9c8fc5"
          stroke-width="0.0938"
          d="M503.9,67.6c1.8,0.9,3,2.6,4.5,4c6.3,6.3,12.601,12.5,18.9,18.7c-4.9,6.9-9.3,14.2-14.7,20.7C509.6,96.5,507.4,81.9,503.9,67.6z"/>
    <path fill="#9c8fc5"
          stroke="#9c8fc5"
          stroke-width="0.0938"
          d="M728.001,68.9c0.801,0.5,1.601,1,2.301,1.7c8.8,8.1,17.699,16.1,26.5,24.2c-0.103,0.3-0.2,0.9-0.301,1.2c-0.602,2.3-1.199,4.7-1.699,7.1c-1.801-0.8-2.7-2.7-3.9-4.2C743.4,88.9,735.4,79.1,728.001,68.9z"/>
    <path fill="#fffcd8"
          stroke="#fffcd8"
          stroke-width="0.0938"
          d="M842.9,110.7c50-21.1,102.8-36.4,156.9-41.5c-0.2,7-4.9,13.3-11,16.6c-14.9,8.4-29.8,16.9-44.8,25.3c1.5,15,3.697,30,5.1,45c0.5,6.1-1.2,12.7-6.2,16.6c-2.7,1.9-5.6,3.6-8.897,3.7c-5.7,0.3-10.7-3-15-6.4c-11-8.6-22.103-17.3-33.103-26c-16.5,9.4-33.1,18.8-49.7,28.2c-5.5,3.2-12.397,5.1-18.6,2.8c-3-1.7-6.1-4.2-6.5-7.9c-0.9-5.5,2.8-10.1,5.5-14.5C825.4,138.7,833.802,124.4,842.9,110.7z"/>
    <path fill="#9c8fc5"
          stroke="#9c8fc5"
          stroke-width="0.0938"
          d="M212.1,101.1c9.398,0,18-5.9,22.898-13.7c11.102,9.1,21.899,18.6,32.899,27.9c-1,3.4-1.8,6.8-2.602,10.2c-5,3.9-10.8,7.4-17.3,7.5c-13,0.1-26,0.1-39,0.1c-1.398,0.2-2.398-0.9-3.3-1.7c-9.301-8.7-18.801-17.2-28.101-25.8c-1.2-1.1-2.5-2-3.802-2.9c-0.3-0.4-0.8-1.2-1.1-1.6C185.8,101.1,198.9,101.1,212.1,101.1z"/>
    <path fill="#f93c15"
          d="M441.802,95.4c3-0.6,5.897-1.8,8.5-3.5c6.1,5.3,11.8,11,18.1,16c0.5,3,1.2,6,1.7,9.1c-4.4-4-8.8-7.9-13.1-11.9c-3.9-5.3-10.9-6.3-17-5.6c-14.2,0.1-28.4,0.2-42.603-0.1c0.4-1.3,0.8-2.5,1.2-3.8C413.002,95.4,427.4,95.7,441.802,95.4z"/>
    <path fill="#f93c15"
          d="M335.1,100.9c4.7-0.6,8.9-2.8,12.6-5.5c2.5,2.6,5,5.1,7.7,7.4c-2,7.9-4.1,15.7-5.897,23.7c-8.803-8.3-17.303-17-26.4-25.1C327.1,100.6,331.199,101.6,335.1,100.9z"/>
    <path fill="#f93c15"
          d="M619.001,95.5c15-0.4,29.898,0.4,44.898-0.4c4.8,4.4,9.602,8.7,14.5,13c-0.5,1.6-0.898,3.3-1.3,4.9c-2-1.8-4-3.6-6.102-5.3c-2.301-4.1-6.198-7.9-11.198-8c-13.802-0.2-27.603-0.1-41.5,0C618.501,98.6,618.802,96.6,619.001,95.5z"/>
    <path fill="#ffd232"
          d="M440.002,99.5c6.1-0.7,13.1,0.3,17,5.6c5.5,9.5-0.4,21.2-9,26.6c-7.103,5-16.2,3.7-24.5,3.7C429.302,123.6,435.302,111.8,440.002,99.5z"/>
    <path fill="#9c8fc5"
          stroke="#9c8fc5"
          stroke-width="0.0938"
          d="M323.1,101.4c9.1,8.1,17.6,16.8,26.4,25.1c-2.2,8.5-4.303,17-6.4,25.5c-1.6,6.3-0.7,13.6,4,18.3c-1.5,6.6-2.9,13.3-4.8,19.8c-11.603-10.1-23.103-20.2-34.7-30.3c1.8-3,2.4-6.4,3.3-9.8C314.9,133.8,318.9,117.6,323.1,101.4z"/>
    <path fill="#f93c15"
          d="M173.8,102.7c1.302,0.9,2.602,1.8,3.802,2.9c9.3,8.6,18.8,17.1,28.101,25.8c0.899,0.8,1.899,1.9,3.3,1.7c13,0,26,0,39-0.1c6.5-0.1,12.301-3.6,17.301-7.5c-2.399,8.8-4.5,17.6-6.801,26.4c-0.699,3.2-1.601,6.4-0.8,9.6c1,5.9,6.3,10.2,11.8,11.8c13.7,4.2,30.399-1.2,38.102-13.5c11.6,10.1,23.1,20.2,34.7,30.3c1.897-6.5,3.3-13.2,4.8-19.8c3.9,3.2,9,4.7,13.9,4.8c12.197,0,24.397-0.1,36.6,0c11.8,0.1,23.6,0.1,35.3,0.1c3.8,0.1,7.4-0.8,10.7-2.5c2.7,2.1,5.4,4.2,7.9,6.5c-10.7,0.5-21.2,7.7-24.4,18.1c-1.5,5.7-3,11.5-4.3,17.3c-9.8-8.5-18.9-17.6-28.7-26c-1.3-1.4-2.7-2.8-4.2-4.1c-2.897-2.3-6.2-4.3-9.897-4.7c-9.803-1.3-19.5,4.2-24.9,12.2c-3.6,5-4.4,11.2-6,17c-5.4-5.2-10.6-10.8-16-16.1c-7.7-9.3-20.2-13.8-32.1-12.9c-25.9,1.6-50.002,21.2-56.2,46.5c-3-2.9-5.5-6.4-8.5-9.2c0.898-10.3-1.7-20.7-7.302-29.3C211.3,159.1,192.3,131.1,173.8,102.7 M248,138.1c-10.398-0.1-20.7,0-31.101-0.1c13,19.5,25.898,39.2,38.7,58.9c4.5-4.8,9.601-9.2,15.398-12.3c-4.7-5.5-10.8-9.7-15.3-15.3c-3.5-4.6-4.2-10.9-2.601-16.4c1.601-5.5,2.8-11.2,4.5-16.7C254.4,136.8,251.3,138.1,248,138.1z"/>
    <path fill="#9c8fc5"
          stroke="#9c8fc5"
          stroke-width="0.0938"
          d="M457.002,105.1c4.3,4,8.697,7.9,13.1,11.9c2.3,13.5,4.9,26.9,7.1,40.4c-9.898-8.4-19.3-17.3-29.198-25.7C456.6,126.3,462.502,114.6,457.002,105.1z"/>
    <path fill="#9c8fc5"
          stroke="#9c8fc5"
          stroke-width="0.0938"
          d="M671.001,107.7c2.101,1.7,4.101,3.5,6.101,5.3c-0.7,2.6-1.3,5.3-1.9,8c-2.1,8-4.1,16.1-6.198,24.2c-4.102-3.8-8.199-7.6-12.302-11.4c5.4-2.4,10.103-6.7,12.9-12C671.9,117.5,672.199,112.4,671.001,107.7z"/>
    <path fill="#ffd232"
          d="M574.1,110.2c30.4,11.4,63.3,13.8,95.5,11.6c-2.8,5.3-7.5,9.6-12.9,12c-3.1,1.2-6.397,1.8-9.699,1.7c-12.601-0.1-25.198,0.1-37.698-0.1c-0.4,1.3-0.7,2.6-0.802,3.9c13.199,0,26.399-0.1,39.602,0.1c4.3-0.1,8.2,2.1,11,5.2c4.7,7.8,1.5,17.7-4.7,23.7c-4.397,4.1-10.3,7.1-16.5,6.9c-18.3,0-36.6,0-54.897,0c-5,0.2-10.103-1-14.303-3.9c-5.8-4.9-6.897-13.2-4.897-20.2C567.199,137.5,570.802,123.8,574.1,110.2z"/>
    <path fill="#9c8fc5"
          stroke="#9c8fc5"
          stroke-width="0.0938"
          d="M714.302,130c9.397,12.6,18.8,25.3,28.3,37.9c1.6,2.2,3.8,3.8,6.1,5.3c3,2.8,6.2,5.5,9.4,8.3c-8.1,3.5-14.1,11.1-16.3,19.5c-2.603,9.8-4.8,19.6-7.4,29.3c-5.7-5.1-11.3-10.2-16.7-15.6c10.102-2.5,18.302-12.2,18.102-22.8c0-5.4-3.7-10.2-8.7-12.1c-0.2-0.1-0.5-0.3-0.7-0.4c-6.7-6.5-13.8-12.5-20.7-18.8c2.103-3.7,2.802-8,3.9-12.2C711.199,142.3,712.6,136.1,714.302,130z"/>
    <path fill="#f93c15"
          d="M423.502,135.4c8.3,0,17.397,1.3,24.5-3.7c9.897,8.4,19.3,17.3,29.197,25.7c0.5,3.4,1.103,6.8,2.5,10c-8.3-7.2-16.397-14.6-24.697-21.8c-1.7-1.8-3.303-3.9-5.7-4.9c-3.2-1.6-6.9-1.3-10.3-1.4c-6,0-12-0.1-18,0.1c-11.2,0.2-22.4-0.1-33.5,0.1c0.3-1.4,0.6-2.8,1-4.2C400.199,135.2,411.9,135.2,423.502,135.4z"/>
    <path fill="#f93c15"
          d="M647.001,135.5c3.301,0.1,6.601-0.5,9.698-1.7c4.103,3.8,8.2,7.6,12.302,11.4c-0.5,2.1-1,4.1-1.5,6.2c-2.802-2.3-5.602-4.5-8.399-6.8c-2.8-3.1-6.7-5.3-11-5.2c-13.2-0.2-26.4-0.1-39.601-0.1c0.101-1.3,0.398-2.6,0.801-3.9C621.802,135.6,634.4,135.4,647.001,135.5z"/>
    <path fill="#ffd232"
          d="M421.002,139.4c6-0.2,12-0.1,18-0.1c3.397,0.1,7.1-0.2,10.3,1.4c2.397,1,4,3.1,5.7,4.9c5,10.4-2.103,22.1-11.4,27.1c-3.3,1.7-6.9,2.6-10.7,2.5c-11.7,0-23.5,0-35.3-0.1C405.9,163.5,414.1,151.9,421.002,139.4z"/>
    <path fill="#fffcd8"
          stroke="#fffcd8"
          stroke-width="0.0938"
          d="M742.6,167.9c14.2-10.6,29.1-20.1,44.4-28.9c-2.103,7.2-3,14.7-6.2,21.5c-5.9,11.1-20.2,17-32.103,12.7C746.4,171.7,744.199,170.1,742.6,167.9z"/>
    <path fill="#f93c15"
          d="M836.199,172.2c16.603-9.4,33.2-18.8,49.7-28.2c11,8.7,22.102,17.4,33.102,26c4.301,3.4,9.301,6.7,15,6.4c3.301-0.1,6.198-1.8,8.898-3.7c4.8,4.1,9.602,8.2,14.5,12.2c-6.5,4.6-10.8,11.8-12,19.7c-2.8-2.6-5.6-5.1-8.398-7.7c-6.699-7.1-15.602-11.6-24.699-15.1c-8.301-3.5-17.801-4.2-26.5-1.9c-12.301,2.8-23,11.3-29.103,22.3c-4.6-4.1-8.897-8.4-13.5-12.3c-4.8-5.5-11.6-9.3-18.897-10.1c-2.2-1.5-4.4-3.2-6.7-4.8C823.802,177.3,830.699,175.4,836.199,172.2z"/>
    <path fill="#9c8fc5"
          stroke="#9c8fc5"
          stroke-width="0.0938"
          d="M659.1,144.6c2.8,2.3,5.6,4.5,8.4,6.8c-1.2,4.3-2.4,9.2-0.303,13.5c1.103,3.2,3.9,5.3,6.5,7.3c2.603,2.4,5.2,4.7,7.803,7.1c-5.103,0.1-10.103,0-15.2,0c-3.8-3.8-8-7.3-11.9-11C660.6,162.3,663.802,152.4,659.1,144.6z"/>
    <path fill="#9c8fc5"
          stroke="#9c8fc5"
          stroke-width="0.0938"
          d="M455.002,145.6c8.3,7.2,16.397,14.6,24.697,21.8c1.603,1.6,3.2,3.1,4.9,4.7c2.6,3.1,5.398,6.2,8.2,9.3c-7.603,2.8-14.103,8.7-17.103,16.3c-1.199,3.7-2.1,7.5-3.1,11.3c-5.5,22-11,44-16.5,66c-1.9,6.8,1.1,14.2,7,17.9c6.3,6.1,13.2,11.6,19.3,18c-1.6,1.8-2.399,5.699-4.899,5.699c-11.601-10.302-23.601-20.102-34.898-30.5c3.2-3.399,5.5-7.5,6.6-12c5.103-20.602,10.303-41.199,15.5-61.802c1.303-7.2,4.9-14.3,3.5-21.8c-1.6-7.5-9.5-11.4-16.697-11.3c-2.5-2.3-5.2-4.4-7.9-6.5C452.9,167.7,460.002,156,455.002,145.6z"/>
    <path fill="#f93c15"
          d="M673.699,172.2c11.7,4.9,25.7-1.1,32-11.6c6.9,6.3,14,12.3,20.7,18.8c-15-0.3-30,0-44.898-0.1C678.9,176.9,676.302,174.6,673.699,172.2z"/>
    <path fill="#f93c15"
          d="M748.699,173.2c11.9,4.3,26.2-1.6,32.103-12.7c7.8,6.5,15.5,13,23.3,19.4c-12.7,0-25.4,0-38.101,0c-2.699,0-5.399,0.6-7.899,1.6C754.9,178.7,751.699,176,748.699,173.2z"/>
    <path fill="#f93c15"
          d="M484.6,172.1c11.2,5.4,25.3,3.5,35.1-4.1c4.603,4.9,9.303,9.9,14,14.8c-5.397,2.9-9.897,7.4-12.5,13c-2-2.4-4-4.8-6-7.2c-4.197-8-14.397-10.5-22.397-7.2C490.002,178.3,487.199,175.2,484.6,172.1z"/>
    <path fill="#f93c15"
          d="M637.9,175.2c6.2,0.2,12.103-2.8,16.5-6.9c3.9,3.7,8.103,7.2,11.9,11c-10.603-0.8-21.4,4.4-27.2,13.3c-2.4-2-4.8-4-7.2-5.9c-2.5-3.2-5.7-6-9.7-6.9c-10.197-2.4-21,3.1-27,11.3c-7.5,11-15.197,21.9-22.8,33c-1.7,2.4-3.3,4.9-5.2,7.2c-0.397-3.1-1-6.2-1.6-9.3c-2-10-4.1-20-5.9-30.1c-0.3-1.8-1-3.5-1.897-5.2c3.6-5.1,7.2-10.4,10.897-15.4c4.2,2.9,9.303,4.1,14.303,3.9C601.302,175.2,619.6,175.2,637.9,175.2z"/>
    <path fill="#ffd232"
          d="M427.1,197.3c3.2-10.4,13.7-17.6,24.4-18.1c7.197-0.1,15.1,3.8,16.697,11.3c1.4,7.5-2.197,14.6-3.5,21.8c-14.5,0.601-28.697,3.4-42.897,6.101c0.397-1.301,0.7-2.5,1-3.801C424.1,208.8,425.6,203,427.1,197.3z"/>
    <path fill="#ffd232"
          d="M595.199,191.1c6-8.2,16.802-13.7,27-11.3c4,0.9,7.2,3.7,9.7,6.9c3.3,6.9,2.7,15.4-1.6,21.7c-7.103,10.3-14.2,20.6-21.2,30.897c-11.9-5.897-24.2-10.698-36.7-15.198C580.001,213,587.699,202.1,595.199,191.1z"/>
    <path fill="#ffd232"
          d="M639.1,192.6c5.8-8.9,16.6-14.1,27.2-13.3c5.1,0,10.1,0.1,15.2,0c14.897,0.1,29.897-0.2,44.897,0.1c0.2,0.1,0.5,0.3,0.7,0.4c-14,10.8-27.102,22.6-39.3,35.3c-4.9,0.103-9.7-0.1-14.5,0.103c-0.2,1.3-0.5,2.6-0.802,3.8c3.602,0,7.199,0,10.802,0.2c-12.5,14.1-25.2,28.3-35.7,44c-8-5.103-15.4-11-23.8-15.5c4-15.9,7.897-31.802,12-47.6C636.501,197.4,637.6,194.9,639.1,192.6z"/>
    <path fill="#fffcd8"
          stroke="#fffcd8"
          stroke-width="0.0938"
          d="M885.802,179.9c8.7-2.3,18.2-1.6,26.5,1.9c9.1,3.5,18,8,24.7,15.1c5.1,13.6-9.603,28.6-23.303,25.1c-5.3-3.5-10.5-7.2-15.8-10.8c-2.2-2.101-6.1,1.899-4,3.899c9.2,7.601,19.603,13.698,28.2,21.898c4,5.8,5.899,13,4.899,19.898c-1.802,14.602-12.102,27.399-25.302,33.602c-11.1,5.602-24.397,6.602-36.3,2.8c-9.8-2.6-19.3-7.1-27.2-13.6c-5.897-3.7-6.698-11.802-3.6-17.603c4-7.699,13-13.8,21.899-11.5c7.101,3,13.601,7.2,20.601,10.4c3.7,1.7,8.8-4.3,4.899-7.1c-6.199-4.103-12.5-8.103-18.699-12.201c-6.301-4.102-10.9-11.102-11.5-18.799c-0.9-7.201,1.397-14.4,4.897-20.702C862.802,191.2,873.501,182.7,885.802,179.9z"/>
    <path fill="#fffcd8"
          stroke="#fffcd8"
          stroke-width="0.0938"
          d="M982.302,179.5c13.2,0.1,26.5,0,39.8,0c3.7,0,7.6-0.2,11.3,1c2.2,0.9,4.102,2.6,5.7,4.4c5,9.6-0.601,21.4-9.2,26.8c-3.3,2-7,3.6-10.897,3.399c-11.7,0-23.303,0-35,0c-0.4,1.398-0.803,2.698-1.103,4.101c14.7,0.1,29.4,0,44.102,0.1c4,0.2,7.698,2.5,10.301,5.601c5.199,9.302-0.4,20.699-8.603,26.199c-3.5,2.301-7.6,3.603-11.698,3.9c-14.302-0.1-28.602,0-43,0c-0.302,1.3-0.699,2.7-1.102,4.1c16.7,0.103,33.4-0.1,50.102,0c4.398,0,8.301,2.5,11,5.801c5.301,9.699-0.899,21.5-9.802,26.602c-3.3,2.102-7.198,3.3-11.198,3.3c-21,0.103-42,0-63.102,0c-5.1,0.2-10.3-0.397-14.8-2.897c-5.9-3.801-8.3-11.301-7-18c1.899-8.7,4.3-17.2,6.399-25.801c0.398-1.899,1-3.899,1.5-5.899c3-12.5,6.198-25.101,9.398-37.6c1.2-7.9,5.5-15.1,12-19.7C964.501,179.6,973.699,178.9,982.302,179.5z"/>
    <path fill="#fffcd8"
          stroke="#fffcd8"
          stroke-width="0.0938"
          d="M244.8,226.5c6.2-25.3,30.302-44.9,56.202-46.5c11.897-0.9,24.397,3.6,32.1,12.9c4.3,5.9,7,12.9,7.2,20.2c0.397,7.603-2.103,14.9-3.8,22.301c-3.103,1.5-5.7,3.699-8.5,5.602c-22.603,15.7-47.302,28.5-73.201,37.898c-1.399,0.5-2.801,1.199-4.199,1.802c-6.399,0.1-12.801,0-19.2,0c0.101-1.5,0.5-3,0.899-4.5C236.5,259.6,240.6,243.1,244.8,226.5z"/>
    <path fill="#fffcd8"
          stroke="#fffcd8"
          stroke-width="0.0938"
          d="M355.1,192c5.4-8,15.1-13.5,24.9-12.2c3.697,0.4,7,2.4,9.897,4.7c-11.397,13.3-23.6,26-37,37.3c-2.8,2.3-5.3,4.9-8.6,6.5c1.6-6.399,3.198-12.899,4.8-19.3C350.699,203.2,351.502,197,355.1,192z"/>
    <path fill="#ffd232"
          d="M492.802,181.4c8-3.3,18.2-0.8,22.397,7.2c3.103,7.9-0.698,15.8-2.3,23.6c-13.398-1.2-26.8-0.8-40.2-0.9c-0.1-0.6-0.1-1.7-0.1-2.3c1-3.8,1.898-7.6,3.1-11.3C478.699,190.1,485.199,184.2,492.802,181.4z"/>
    <path fill="#ffd232"
          d="M533.699,182.8c7.7-4.2,18.802-3.9,24.103,3.9c0.897,1.7,1.6,3.4,1.897,5.2c1.802,10.1,3.9,20.1,5.9,30.1c-14.8-3.8-29.8-7.3-45.102-8.8c-1.301-5.8-1.898-11.9,0.699-17.4C523.802,190.2,528.302,185.7,533.699,182.8z"/>
    <path fill="#fffcd8"
          stroke="#fffcd8"
          stroke-width="0.0938"
          d="M687.802,215.1c12.2-12.7,25.3-24.5,39.3-35.3c5,1.9,8.7,6.7,8.7,12.1c0.2,10.6-8,20.3-18.103,22.8C707.802,215.6,697.699,214.7,687.802,215.1z"/>
    <path fill="#fffcd8"
          stroke="#fffcd8"
          stroke-width="0.0938"
          d="M758.1,181.5c2.5-1,5.2-1.6,7.9-1.6c12.697,0,25.397,0,38.1,0c6.8,0,13.5,0.1,20.2-0.1c7.3,0.8,14.1,4.6,18.897,10.1c4.103,6.2,6.4,13.6,5.603,21.1c-1.5,15.5-11.5,29.3-24.603,37.2c0,1.6,0,3.2,0,4.8c-0.1,8.1,2.103,16.7-1.897,24.2c-5.4,11.6-20.2,19.8-32.5,13.899c-4.5-2.802-7.4-7.802-7.3-13.102c-0.603-7.898-0.5-15.898-1.303-23.898c-4,0-7.897-0.102-11.897,0.101c-2.2,8.5-3.5,17.3-7,25.3c-5.8,11.2-20.603,19.1-32.5,12.8c-6.2-4-8.4-12.1-6.2-18.899c0.6-2.301,1.1-4.5,1.7-6.698c2.6-10.5,5.3-21,7.897-31.5c0.303-1.603,0.803-3.302,1.2-4.9c2.603-9.698,4.8-19.5,7.4-29.3C744.001,192.6,750.001,185,758.1,181.5 M777.1,220.7c6-0.4,11.9,0.1,17.9-0.4c3-0.899,3.897-6.2,0.1-6.399c-5.4,0-10.9-0.101-16.3,0.102C777.6,215.9,777.6,218.5,777.1,220.7z"/>
    <path fill="#ffd232"
          d="M352.9,221.8c13.4-11.3,25.603-24,37-37.3c1.5,1.3,2.9,2.7,4.2,4.1c7.7,10.5,16.5,20.2,24.5,30.5c-20.5,5.2-40.7,11.7-59.9,20.603c-6.697,2.897-13.1,6.6-19.8,9.5c1.8-7,3.4-14,5.4-20.9C347.6,226.7,350.1,224.1,352.9,221.8z"/>
    <path fill="#9c8fc5"
          stroke="#9c8fc5"
          stroke-width="0.0938"
          d="M1039.1,184.9c9.5,8.2,18.5,16.9,27.8,25.2c3.3,3.2,7.7,6,8.601,10.801c2.199,9-3.601,17.699-10.601,22.802c-11.7-10.7-23.5-21.2-35-32C1038.501,206.3,1044.1,194.5,1039.1,184.9z"/>
    <path fill="#9c8fc5"
          stroke="#9c8fc5"
          stroke-width="0.0938"
          d="M631.9,186.7c2.4,1.9,4.8,3.9,7.2,5.9c-1.5,2.3-2.6,4.8-3.3,7.5c-4.103,15.8-8,31.7-12,47.6c-2.103,8.7-4.603,17.399-6.4,26.2c-1.5,6.897,1.3,14.5,7.4,18.3c1,0.8,1.897,1.8,2.897,2.8c-4.697,6.7-9.397,13.4-13.897,20.1c-12.3-9.8-23.8-20.699-35.7-30.897c10.4-14.9,20.7-29.9,31-44.9c7-10.3,14.1-20.6,21.2-30.897C634.6,202.1,635.199,193.6,631.9,186.7z"/>
    <path fill="#9c8fc5"
          stroke="#9c8fc5"
          stroke-width="0.0938"
          d="M394.1,188.6c9.8,8.4,18.9,17.5,28.7,26c-0.3,1.301-0.603,2.5-1,3.801c-0.3,1-0.603,1.899-0.9,2.899c-0.8-0.7-1.5-1.399-2.3-2.2C410.6,208.8,401.802,199.1,394.1,188.6z"/>
    <path fill="#9c8fc5"
          stroke="#9c8fc5"
          stroke-width="0.0938"
          d="M515.199,188.6c2,2.4,4,4.8,6,7.2c-2.6,5.5-2,11.601-0.698,17.4c4.101,22.899,8.101,45.8,12.101,68.7c0.399,2.897,1.8,5.6,3.8,7.699c-1.898,6.898-3.2,13.898-5.5,20.601c-12.2-9.8-23.5-20.7-35.6-30.7c1-1.9,1.698-4,2.198-6.1c5.102-20.4,10.302-40.801,15.399-61.2C514.501,204.4,518.302,196.5,515.199,188.6z"/>
    <path fill="#9c8fc5"
          stroke="#9c8fc5"
          stroke-width="0.0938"
          d="M843.199,189.9c4.603,3.9,8.9,8.2,13.5,12.3c-3.5,6.3-5.8,13.5-4.897,20.7c0.6,7.699,5.199,14.699,11.5,18.8c6.199,4.1,12.5,8.1,18.699,12.2c3.898,2.8-1.199,8.8-4.899,7.1c-7-3.2-13.5-7.4-20.601-10.4c-8.899-2.3-17.899,3.801-21.899,11.5c-3.8-2.6-7-6-10.4-9.1c0-1.6,0-3.2,0-4.8c13.102-7.9,23.102-21.7,24.602-37.2C849.6,203.5,847.302,196.1,843.199,189.9z"/>
    <path fill="#9c8fc5"
          stroke="#9c8fc5"
          stroke-width="0.0938"
          d="M333.1,192.9c5.4,5.3,10.6,10.9,16,16.1c-1.6,6.4-3.2,12.9-4.8,19.3c-2,6.9-3.603,13.9-5.4,20.9c-2.2,8.899-4.5,17.8-6.6,26.7c-1.603,6.3,1.897,12.8,7.3,15.897c6,6,12.4,11.4,18.5,17.103c0.8,0.897,2.4,1.5,2.3,2.897c-3.5,13.103-6.5,26.302-10.1,39.4c-6,16.698-20.9,28.5-36.103,36.6c-11.5-10.698-23.3-21-34.699-31.897c15.5-8.5,30.802-20.602,36.4-38.102c5.4-21.398,10.8-42.8,16.102-64.199c1.5-6.101,3.101-12.101,4.5-18.199c1.698-7.399,4.198-14.699,3.801-22.301C340.1,205.8,337.4,198.8,333.1,192.9z"/>
    <path fill="#9c8fc5"
          stroke="#9c8fc5"
          stroke-width="0.0938"
          d="M937.001,196.9c2.801,2.6,5.601,5.1,8.398,7.7c-3.2,12.5-6.398,25.1-9.398,37.6c-7.5-6.601-15-13.3-22.302-20.2C927.4,225.5,942.1,210.5,937.001,196.9z"/>
    <path fill="#f9ffab"
          d="M456.1,275c5.5-22,11-44,16.5-66c0,0.6,0,1.7,0.1,2.3c13.4,0.101,26.803-0.3,40.2,0.9c-5.1,20.399-10.3,40.8-15.397,61.2c-0.5,2.1-1.2,4.199-2.2,6.1c-5.7,11.3-20.103,19-32.2,13.4C457.199,289.2,454.199,281.8,456.1,275z"/>
    <path fill="#f93c15"
          d="M893.9,215.1c-2.1-2,1.8-6,4-3.897c5.3,3.6,10.5,7.3,15.8,10.8c7.302,6.898,14.802,13.6,22.302,20.199c-0.5,2-1.103,4-1.5,5.898c-4.103-3.699-8.2-7.398-12.4-11.101C913.501,228.8,903.1,222.7,893.9,215.1z"/>
    <path fill="#f9ffab"
          d="M421.802,218.4c14.2-2.7,28.397-5.5,42.897-6.103c-5.198,20.603-10.397,41.2-15.5,61.802c-1.1,4.5-3.397,8.601-6.6,12c-7.7,7.5-20.5,11.5-30.2,5.5c-1.5-1.199-2.8-2.602-4-4c-8.898-11.102-18-22-26.898-33.102c-0.602-0.7-1.302-1.3-2.102-1.7c-2.5,8.9-3.898,18.103-7.3,26.7c-6,10.898-20.602,17.602-32.5,12.3c-5.4-3.1-8.9-9.6-7.3-15.897c2.1-8.9,4.397-17.801,6.6-26.7c6.7-2.9,13.103-6.601,19.8-9.5c19.2-8.9,39.4-15.4,59.9-20.601c0.8,0.801,1.5,1.5,2.3,2.198C421.199,220.3,421.502,219.4,421.802,218.4z"/>
    <path fill="#f9ffab"
          d="M520.501,213.2c15.301,1.5,30.301,5,45.101,8.8c0.6,3.1,1.2,6.2,1.6,9.3c1.9-2.3,3.5-4.8,5.2-7.2c12.5,4.5,24.8,9.301,36.7,15.2c-10.3,15-20.601,30-31,44.9c-4.4,5.6-11.3,8.899-18.2,10.399c-8,1.398-17.2,0.801-23.5-5c-2-2.102-3.398-4.802-3.8-7.699C528.6,259,524.6,236.1,520.501,213.2z"/>
    <path fill="#f93c15"
          d="M777.1,220.7c0.5-2.2,0.5-4.8,1.7-6.7c5.397-0.2,10.897-0.1,16.3-0.1c3.8,0.199,2.9,5.5-0.1,6.397C789.001,220.8,783.1,220.3,777.1,220.7z"/>
    <path fill="#f93c15"
          d="M673.302,215.2c4.8-0.2,9.6,0,14.5-0.101c9.897-0.399,20,0.5,29.897-0.399c5.4,5.399,11,10.5,16.7,15.6c-0.397,1.601-0.897,3.3-1.2,4.9c-2.5-2.3-5-4.601-7.697-6.7c-1.9-4.8-6.303-8.8-11.7-9.3c-10.103-0.101-20.3,0-30.5,0c-3.603-0.2-7.2-0.2-10.8-0.2C672.802,217.8,673.1,216.5,673.302,215.2z"/>
    <path fill="#9c8fc5"
          stroke="#9c8fc5"
          stroke-width="0.0938"
          d="M236.3,217.3c3,2.8,5.5,6.3,8.5,9.2c-4.198,16.6-8.3,33.1-12.5,49.7c-0.398,1.5-0.8,3-0.898,4.5c5.2,4.399,10.601,8.5,15.898,12.8c-2.198,1.2-4.398,2.4-6.698,3.5c-6.602-5.5-13.5-10.8-20.2-16.3C225.6,259.5,231.3,238.5,236.3,217.3z"/>
    <path fill="#fffcd8"
          stroke="#fffcd8"
          stroke-width="0.0938"
          d="M683.302,219.2c10.2,0,20.397-0.101,30.5,0c5.397,0.5,9.8,4.5,11.7,9.3c2.1,10.8-5.5,21.2-15.2,25c-4.603,1.9-9.5,1.3-14.3,1.4c-10.9,0-21.803-0.103-32.803,0.1c-0.3,1.4-0.6,2.7-0.897,4.1c13.2-0.1,26.5-0.1,39.7,0c4.3-0.199,8.3,2,11.1,5.103c4.8,7.5,1.8,17.3-4.3,23.198c-4.3,4.5-10.5,7.5-16.8,7.302c-14,0.1-28,0-42,0c-6.803-0.103-13.603,0.5-20.303-0.603c-0.3-1.1-0.697-2.3,0.103-3.3c5.5-9.399,11.1-18.8,17.8-27.6C658.1,247.5,670.802,233.3,683.302,219.2z"/>
    <path fill="#9c8fc5"
          stroke="#9c8fc5"
          stroke-width="0.0938"
          d="M1037.302,224.9c9.397,8.199,18.397,16.8,27.699,25.199c2.898,2.898,6.898,5.198,8.398,9.398c3.3,8.898-2.398,19.398-10.398,23.5c-11.5-10.602-23.102-21.102-34.302-31.898C1036.9,245.6,1042.501,234.2,1037.302,224.9z"/>
    <path fill="#9c8fc5"
          stroke="#9c8fc5"
          stroke-width="0.0938"
          d="M725.501,228.5c2.698,2.1,5.198,4.4,7.698,6.7c-2.6,10.5-5.3,21-7.897,31.5c-5.2-4.2-10.103-8.601-15-13.2C720.001,249.7,727.6,239.3,725.501,228.5z"/>
    <path fill="#ffd232"
          d="M328.002,241c2.8-1.9,5.397-4.1,8.5-5.6c-1.4,6.1-3,12.1-4.5,18.199c-15.103,8.101-29.103,18.198-42.4,28.898c-26.7,22-49.802,48.398-66.802,78.5c-2.3,4.102-4.698,8.2-6.5,12.7c-24.6,1.6-50.398-0.9-72.698-12.4C132.5,355.4,121.9,346.4,118,334c-1.898-5.8-2-12.1-0.5-18c1.899-7.1,3.399-14.3,5.5-21.3c23.602,2.7,47.602,2.6,71.102-0.8c2.3,1.699,4.5,3.6,6.698,5.5c-5.8,9.397-11.5,18.897-16.898,28.5c10.7-5.5,21.2-11.5,31.898-17.2c8.2,5.5,16,11.5,24.4,16.8c-0.601-9.5-1.601-19.1-2.4-28.6c0.9-0.7,1.802-1.301,2.802-1.9c2.3-1.1,4.5-2.3,6.698-3.5c6.9-3.9,13.9-7.6,20.802-11.5c0.3-0.2,0.8-0.7,1.101-1c-6.2-0.3-12.398,0.1-18.601-0.3c1.398-0.601,2.8-1.3,4.198-1.8C280.7,269.5,305.4,256.7,328.002,241z"/>
    <path fill="#9c8fc5"
          stroke="#9c8fc5"
          stroke-width="0.0938"
          d="M922.1,237c4.2,3.7,8.3,7.4,12.4,11.1c-2.102,8.602-4.5,17.102-6.4,25.801c-1.3,6.699,1.1,14.199,7,18c6,5.801,12.4,11.199,18.3,17c-4.1,5.398-9.5,9.801-15.5,12.801c-11.899-10.5-24.2-20.7-36.2-31.2c13.2-6.2,23.5-19,25.301-33.601C928.001,250,926.1,242.8,922.1,237z"/>
    <path fill="#f9ffab"
          d="M617.4,273.9c1.8-8.801,4.3-17.5,6.4-26.2c8.397,4.5,15.8,10.399,23.8,15.5c-6.7,8.8-12.3,18.2-17.8,27.6c-0.8,1-0.4,2.2-0.103,3.3c-1.697-0.699-3.299-1.199-4.897-1.898C618.699,288.4,615.9,280.8,617.4,273.9z"/>
    <path fill="#9c8fc5"
          stroke="#9c8fc5"
          stroke-width="0.0938"
          d="M379.4,252.8c0.8,0.4,1.5,1,2.103,1.7c8.897,11.1,18,22,26.897,33.1c1.2,1.4,2.5,2.801,4,4c-1.5,6.103-2.897,12.4-4.8,18.4c-12.2-9.7-23.6-20.5-35.5-30.5C375.502,270.9,376.9,261.7,379.4,252.8z"/>
    <path fill="#f9ffab"
          d="M289.6,282.5c13.3-10.7,27.3-20.8,42.4-28.9c-5.303,21.4-10.7,42.801-16.103,64.2C310.302,335.3,295,347.4,279.5,355.9c-19.5,10.397-41.3,16-63.2,17.8c1.802-4.5,4.2-8.601,6.5-12.7C239.8,330.9,262.9,304.5,289.6,282.5z"/>
    <path fill="#f93c15"
          d="M696.001,254.9c4.801-0.103,9.698,0.5,14.301-1.4c4.897,4.6,9.8,9,15,13.2c-0.603,2.2-1.103,4.399-1.7,6.7c-3.5-3.103-6.9-6.301-10.5-9.2c-2.8-3.101-6.8-5.3-11.101-5.101c-13.199-0.102-26.5-0.102-39.699,0c0.3-1.399,0.6-2.699,0.897-4.102C674.199,254.8,685.1,254.9,696.001,254.9z"/>
    <path fill="#9c8fc5"
          stroke="#9c8fc5"
          stroke-width="0.0938"
          d="M769.302,254.2c4-0.2,7.897-0.101,11.897-0.101c0.803,8,0.7,16,1.303,23.898c-0.103,5.3,2.8,10.3,7.3,13.102c3.3,3.5,7.1,6.601,10.6,10c0,3-1.3,6-2.3,9c-1.7-0.5-2.8-2-4.1-3c-10.603-9.199-21.103-18.5-31.7-27.602C765.802,271.5,767.1,262.7,769.302,254.2z"/>
    <path fill="#9c8fc5"
          stroke="#9c8fc5"
          stroke-width="0.0938"
          d="M713.1,264.2c3.6,2.899,7,6.1,10.5,9.2c-2.2,6.8,0,14.897,6.2,18.897c6.397,6.302,13.5,12,19.8,18.5c-1.6,2.802-2.9,5.802-5.3,8.103c-11.7-10.603-23.7-21-35.5-31.5C714.9,281.5,717.9,271.7,713.1,264.2z"/>
    <path fill="#9c8fc5"
          stroke="#9c8fc5"
          stroke-width="0.0938"
          d="M1034.001,264.9c9.198,7.8,17.898,16.199,26.898,24.199c3.602,3.601,8.5,6.601,9.7,11.898c2,8.5-3.4,16.8-10,21.8c-12.3-10.198-24.2-21-36.4-31.3C1033.1,286.4,1039.302,274.6,1034.001,264.9z"/>
    <path fill="#f93c15"
          d="M178.5,280.7c14,0,28,0.1,41.899,0c6.7,5.5,13.601,10.8,20.2,16.3c-1,0.6-1.899,1.2-2.802,1.9c0.802,9.5,1.802,19.1,2.4,28.6c-8.4-5.3-16.2-11.3-24.4-16.8c-5.1-3.7-10.1-7.5-15-11.3c-2.198-1.9-4.398-3.801-6.698-5.5C188.9,289.5,183.5,285.4,178.5,280.7z"/>
    <path fill="#f93c15"
          d="M231.4,280.7c6.398,0,12.801,0.1,19.2,0c6.198,0.399,12.398,0,18.601,0.3c-0.301,0.3-0.801,0.8-1.101,1c-6.899,3.9-13.899,7.6-20.802,11.5C242,289.2,236.6,285.1,231.4,280.7z"/>
    <path fill="#9c8fc5"
          stroke="#9c8fc5"
          stroke-width="0.0938"
          d="M183.9,327.9c5.398-9.603,11.101-19.103,16.898-28.5c4.9,3.8,9.9,7.6,15,11.3C205.1,316.4,194.6,322.4,183.9,327.9z"/>
    <path fill="#f93c15"
          d="M1076.1,305c0.943-7.357-4.8-13.2-10-17.7c8.3-5.3,14.5-15.2,13.1-25.2c-0.8-6.397-5.5-11.397-10.397-15.199c8.8-5.898,14.3-17.398,11.397-27.898c-1.3-5.602-6.199-9.2-10.3-12.898c-10.6-9.702-21.2-19.399-31.899-29.102c-2.898-2.7-7.301-2.3-11-2.5c-13.398,0-26.801-0.1-40.101,0.1c-1.399-9.5-2.3-19-3.5-28.5c14.2-7.6,28-15.8,42-23.5c8-4.5,14.2-13.2,13.2-22.7c-0.4-4.2-3.801-7.1-6.602-9.8c-11-10.8-21.801-21.7-32.698-32.5c-7.5-6.2-17.9-3-26.802-3.9c-0.698-5.7-2-11.8-6.301-15.9C955.001,26.6,943.699,15.6,932.4,4.5c-2.6-2.6-6.2-3.8-9.8-4.5h-5.3c-9.5,0.9-16.7,8.2-21.5,15.9c-7.9,12.5-15.8,25-23.4,37.7c-15.8,0.1-31.6-0.1-47.397,0.1c-7.7,0-15.103,4.1-19.2,10.6c-3.7-3-7.2-6.6-11.8-8.4c-16.103-5-34.9,6.4-38.2,22.8c-0.603,2.3-1.103,4.5-1.603,6.7c-11.1-9.1-21.5-19-32.697-27.9c-11.303-6-25.603-0.8-33.603,8.3c-5.1-4.7-10.3-10.9-17.897-10.9c-20-0.2-40.103-0.1-60.103-0.1c-9.7-0.2-19.1,4.2-25.7,11.2c-4.8-4.3-9.3-9.9-16.1-11c-11-2.6-22.6,2.8-29.8,11.2c-4.3,5.3-7.603,11.3-12,16.5c-6.603-7.4-14-14.1-20.9-21.1c-5.2-5.6-13.6-7.6-20.897-5.8c-6.7,1.2-12.7,5.1-17.2,10.1c-4.2-3.6-8-8.1-13.3-10.1c-2.9-1.2-6-1-9-1c-19,0-38,0-57,0c-9.303,0.1-18.303,4.4-24.4,11.3c-5.2-3.8-9.3-10.7-16.5-10.5c-26-0.5-52.102-0.6-78.102-0.8C259.4,54.7,250.5,59.9,244.4,67c-4.699-4.2-8.899-9.6-15.199-11.2c-4-1.3-8.2-1-12.301-1c-31.3,0-62.602,0-93.899,0C94.5,53,66.7,77.2,65.2,105.9c-0.101,5.7,0.8,11.5,3.399,16.5c9.398,14.7,18.8,29.4,28.398,44.1c-19-0.1-38-0.1-57-0.1c-15.7,0.6-29.2,12.3-35.398,26.2c-7.302,15.9-4.7,35.8,6.5,49.3C24.3,254.4,37.8,266.6,51,279c6.8,6.2,15.7,10.3,25,10.3c14.3,0,28.7,0.101,43.102,0c-2,9-4.602,17.8-6.5,26.8c-2.399,11.103,0.101,23.2,7.3,32c2.601,3,5.601,5.801,8.5,8.603c12.898,12,26,23.897,39.398,35.6c18.4,12.9,41.302,17.603,63.5,18.7h12.5c28.7-1.2,57.899-8.3,82.202-24.102c12.397-8.301,24-19.5,29-34c2.897-10.698,5.697-21.5,8.3-32.301c4.6,3,8.6,7.103,13.8,9.301c10.2,2,21.398-1.601,28.7-9c5.6-5.198,8.2-12.601,9.3-19.898c11,9.3,21.7,19,33.1,27.898c3.802,3.302,9.302,2.399,13.9,1.899c8.6-1,16.1-5.899,21.6-12.5c4.802,4.4,9.5,9,15.2,12.2c12.9,4.1,27.4-3.1,34.4-14.2c3.5-5.2,4.3-11.6,5.897-17.5c10.103,9.101,20.103,18.5,30.401,27.601c6.4,5.101,15.2,6.199,23.2,5.398c9.8-1.398,20-5.898,25.5-14.6c3.2-4.9,6.897-9.5,10-14.5c7.1,5.398,13.397,12,20.2,17.898c3.397,2.899,6.3,6.699,10.5,8.399c4.1,1.899,8.6,2.601,13,2.601c19.897,0,39.897,0,59.897,0c8.2-0.398,14.4-6.801,19.103-13c5,3.801,9.1,8.899,14.697,11.699c15.103,4.801,32-5.3,37.5-19.6c7.4,5.6,13.603,12.6,21.303,17.8c15.3,5.601,33.1-4.8,38.397-19.601c9.7,10.299,22.4,17.601,36.103,21.199c19,5.899,41.397,0.5,54.897-14.199c4.5,4.5,9.5,8.601,14.103,13c2.5,2.799,6.6,2.699,10,2.898c24.397-0.1,48.697-0.1,73.1,0c5.3,0.2,9.15-2.699,13.505-6.05C1069.667,321.854,1074.938,314.062,1076.1,305z M1060.6,322.8c-12.3-10.2-24.2-21-36.4-31.3c-3.3,2.1-7.199,3.3-11.199,3.3c-21,0.101-42,0-63.101,0c-5.1,0.2-10.3-0.399-14.8-2.899c6,5.802,12.4,11.199,18.3,17c-4.1,5.399-9.5,9.802-15.5,12.802c-11.899-10.5-24.2-20.7-36.2-31.2c-11.1,5.602-24.397,6.602-36.3,2.8c-9.8-2.6-19.3-7.1-27.2-13.6c-5.897-3.7-6.699-11.802-3.6-17.603c-3.8-2.6-7-6-10.4-9.1c-0.1,8.1,2.103,16.7-1.897,24.2c-5.4,11.6-20.2,19.8-32.5,13.899c3.3,3.5,7.1,6.601,10.6,10c0,3-1.3,6-2.3,9c-1.7-0.5-2.8-2-4.102-3c-10.601-9.199-21.101-18.5-31.698-27.602c-5.802,11.2-20.603,19.102-32.5,12.8c6.397,6.3,13.5,12,19.8,18.5c-1.602,2.8-2.9,5.8-5.3,8.103c-11.7-10.603-23.7-21-35.5-31.5c-4.302,4.5-10.5,7.5-16.802,7.3c-14,0.1-28,0-42,0c-6.801-0.103-13.601,0.5-20.301-0.603c-1.699-0.697-3.3-1.197-4.898-1.897c1,0.8,1.897,1.8,2.897,2.8c-4.698,6.7-9.397,13.4-13.897,20.1c-12.301-9.8-23.801-20.699-35.7-30.897c-4.4,5.6-11.3,8.897-18.2,10.397c-8,1.4-17.2,0.801-23.5-5c-1.899,6.9-3.2,13.9-5.5,20.603c-12.2-9.802-23.5-20.7-35.6-30.7c-5.7,11.3-20.103,19-32.2,13.398c6.3,6.102,13.2,11.602,19.3,18c-1.6,1.802-2.399,5.699-4.899,5.699c-11.601-10.3-23.601-20.1-34.898-30.5c-7.7,7.5-20.5,11.5-30.2,5.5c-1.5,6.103-2.898,12.4-4.8,18.4c-12.2-9.7-23.602-20.5-35.5-30.5c-6,10.9-20.602,17.6-32.5,12.3c6,6,12.398,11.399,18.5,17.101c0.8,0.899,2.398,1.5,2.3,2.899c-3.5,13.101-6.5,26.3-10.1,39.399c-6,16.701-20.9,28.5-36.103,36.601c-11.5-10.7-23.3-21-34.699-31.899c-19.5,10.399-41.3,16-63.2,17.801c-24.6,1.601-50.398-0.899-72.698-12.399C132.5,355.4,121.9,346.4,118,334c-1.898-5.8-2-12.1-0.5-18c1.899-7.1,3.399-14.3,5.5-21.3c3.602-14.101,7.102-28.2,10.7-42.3c-28.2,0-56.5,0-84.7,0c-5.3-0.103-10.8,0.5-16-1.301c-10.6-3-19.1-11.5-23.6-21.399c-5.8-12.4-5.199-27.6,2-39.3c6.2-10.7,17.7-19.4,30.601-19c21.3,0.1,42.602-0.2,63.899,0.2c-7.8-13.1-16.7-25.7-24.8-38.6c-4-6.4-9.302-12.4-10.399-20.1C68.5,100.1,74,87,82.4,77.5c8.8-9.9,21.3-16.9,34.6-17.7c35.3,0,70.602,0,106,0c5.899,0,12,3.4,14.2,9c2.8,6.1,1.1,13.1-2.2,18.6c11.102,9.1,21.899,18.6,32.899,27.9c1-4.8,2.5-9.4,3.5-14.2c-7.399-0.5-15.399,1.5-22.102-2.4c-4.898-3-7.3-9-6.898-14.6c1.2-11.5,10.5-21.2,21.601-23.8c4-0.9,8-0.4,12.102-0.5c22.3,0,44.6,0,66.9,0c5,0,9.8,2.5,12.897,6.4c2.9,2.2,5.5,4.8,8.2,7.3c4.5-6.9,11.7-11.9,19.8-13.3c3.7-0.6,7.4-0.3,11.103-0.4c17.397,0,34.697,0,52,0c1.8-0.1,3.6,0.2,5.3,0.5c2.7,0.9,5.1,2.6,6.7,4.9c3,2.6,6,5.4,9,8c4-6.7,11-11.8,18.897-13c6.4-1.3,13.603,1.6,17,7.4c1.8,0.9,3,2.6,4.5,4c6.3,6.3,12.603,12.5,18.9,18.7c0.8-1.2,1.698-2.4,2.6-3.6c4.3-6,8.102-12.3,12.7-18.1c6.3-6.7,16.2-11.3,25.398-8.6c3.802,0.9,6.899,3.6,9.302,6.7c2.698,1.9,5,4.3,7.5,6.5c5.397-8.4,15.198-13.7,25.198-13.6c19.699,0,39.302,0,59,0.1c4.5-0.1,8.602,2.5,11.199,6.1c3.103,2.1,5.603,4.8,8.2,7.3c5.2-8.1,14.7-13.9,24.5-13.2c6.101,0.5,11.5,4.2,15.101,9c0.802,0.5,1.602,1,2.302,1.7c8.8,8.1,17.698,16.1,26.5,24.2c2.698-8.4,2.8-18.2,8.8-25.3c4.898-6.1,12.6-9.6,20.398-10c5.199,0.1,10.5,2.1,14,6.1c0.199,0.3,0.699,1,0.899,1.3c2.5,1.5,4.3,3.9,6.7,5.6c1.7-8,9.3-13.8,17.399-14c15.698-0.1,31.301,0,46.898,0c1.2-0.1,3,0.6,3.602-0.9c7.801-12.3,15.398-24.7,23.101-37c3.899-6.2,8.6-12.8,15.899-15c5.801-1.6,13.301-0.8,16.5,4.9c1.101,0.7,2.101,1.6,3,2.5c9.601,9.7,19.601,19.1,29.101,28.9c4.1,4.5,4.2,11,5,16.7c6.899,0,13.899-0.1,20.8,0.1c4.2,0,8,2.4,10.101,6c11.102,10.2,21.602,21.3,32.399,32c3.2,2.4,2.601,6.9,1.5,10.3c-1.8,5.3-6.2,9.2-11,11.8c-14.6,8.2-29.1,16.6-43.7,24.6c1,12.1,2.9,24,4.103,36.1c13.199,0.1,26.5,0,39.8,0c3.7,0,7.6-0.2,11.3,1c2.2,0.9,4.102,2.6,5.7,4.4c9.5,8.2,18.5,16.9,27.8,25.2c3.3,3.2,7.7,6,8.602,10.801c2.198,9-3.602,17.699-10.602,22.802c-11.7-10.7-23.5-21.2-35-32c-3.3,2-7,3.6-10.898,3.397c-11.699,0-23.302,0-35,0c-0.399,1.4-0.802,2.7-1.102,4.103c14.7,0.1,29.4,0,44.102,0.1c4,0.2,7.698,2.5,10.301,5.603c9.397,8.199,18.397,16.8,27.699,25.199c2.898,2.898,6.898,5.198,8.398,9.398c3.3,8.898-2.398,19.398-10.398,23.5c-11.5-10.602-23.102-21.102-34.302-31.898c-3.5,2.301-7.6,3.601-11.698,3.898c-14.302-0.102-28.602,0-43,0c-0.302,1.3-0.699,2.7-1.102,4.102c16.7,0.101,33.4-0.102,50.102,0c4.398,0,8.301,2.5,11,5.801c9.198,7.8,17.898,16.199,26.898,24.199c3.602,3.601,8.5,6.601,9.7,11.898C1072.6,309.5,1067.199,317.8,1060.6,322.8z"/>
</svg>