<svg xmlns="http://www.w3.org/2000/svg" xmlns:xlink="http://www.w3.org/1999/xlink"
viewBox="0 0 1920 237.4">
<style type="text/css">
.st0{clip-path:url(#SVGID_2_);fill:#FBFBE7;}
.st1{clip-path:url(#SVGID_4_);fill:url(#SVGID_5_);}
.st2{display:none;}
.st3{display:inline;}
.st4{clip-path:url(#SVGID_7_);}
.st5{fill:#C7CED8;}
.st6{fill:#B4E3ED;}
.st7{fill:#A9C7E0;}
.st8{fill:#87C6E2;}
.st9{fill:#BCC8DC;}
.st10{fill:#F9EBDC;}
.st11{fill:#AACFE1;}
.st12{fill:#CAC5DD;}
.st13{fill:#A6D2DD;}
.st14{fill:#F4F0E1;}
.st15{fill:#B6CADD;}
.st16{fill:none;stroke:url(#SVGID_8_);stroke-width:15;stroke-miterlimit:10;}
.st17{fill:none;stroke:url(#SVGID_9_);stroke-width:18;stroke-miterlimit:10;}
.st18{fill:none;stroke:url(#SVGID_10_);stroke-width:18;stroke-miterlimit:10;}
.st19{clip-path:url(#SVGID_12_);}
.st20{fill:#F7EFE8;}
.st21{clip-path:url(#SVGID_14_);}
.st22{fill:#F4E7DC;}
.st23{clip-path:url(#SVGID_37_);}
.st24{clip-path:url(#SVGID_38_);}
.st25{clip-path:url(#SVGID_39_);}
.st26{clip-path:url(#SVGID_40_);}
.st27{clip-path:url(#SVGID_41_);}
.st28{clip-path:url(#SVGID_42_);}
.st29{clip-path:url(#SVGID_43_);}
.st30{clip-path:url(#SVGID_44_);}
.st31{clip-path:url(#SVGID_45_);}
.st32{clip-path:url(#SVGID_46_);}
.st33{clip-path:url(#SVGID_47_);}
.st34{clip-path:url(#SVGID_48_);}
.st35{clip-path:url(#SVGID_49_);}
.st36{clip-path:url(#SVGID_50_);}
.st37{clip-path:url(#SVGID_51_);}
.st38{clip-path:url(#SVGID_52_);}
.st39{clip-path:url(#SVGID_53_);}
.st40{clip-path:url(#SVGID_54_);}
.st41{clip-path:url(#SVGID_55_);}
.st42{clip-path:url(#SVGID_56_);}
.st43{clip-path:url(#SVGID_57_);}
.st44{clip-path:url(#SVGID_58_);fill:#CBEBEF;}
.st45{opacity:0.7;}
.st46{clip-path:url(#SVGID_81_);}
.st47{clip-path:url(#SVGID_82_);}
.st48{clip-path:url(#SVGID_83_);}
.st49{clip-path:url(#SVGID_84_);}
.st50{clip-path:url(#SVGID_85_);}
.st51{clip-path:url(#SVGID_86_);}
.st52{clip-path:url(#SVGID_87_);}
.st53{clip-path:url(#SVGID_88_);}
.st54{clip-path:url(#SVGID_89_);}
.st55{clip-path:url(#SVGID_90_);}
.st56{clip-path:url(#SVGID_91_);}
.st57{clip-path:url(#SVGID_92_);}
.st58{clip-path:url(#SVGID_93_);}
.st59{clip-path:url(#SVGID_94_);}
.st60{clip-path:url(#SVGID_95_);}
.st61{clip-path:url(#SVGID_96_);}
.st62{clip-path:url(#SVGID_97_);}
.st63{clip-path:url(#SVGID_98_);}
.st64{clip-path:url(#SVGID_99_);}
.st65{clip-path:url(#SVGID_100_);}
.st66{clip-path:url(#SVGID_101_);}
.st67{clip-path:url(#SVGID_102_);fill:#B2E9ED;}
.st68{clip-path:url(#SVGID_104_);fill:#AACFE1;}
.st69{clip-path:url(#SVGID_106_);fill:#CAC5DD;}
.st70{clip-path:url(#SVGID_108_);fill:#87C6E2;}
.st71{clip-path:url(#SVGID_110_);fill:#F4F0E1;}
.st72{clip-path:url(#SVGID_112_);fill:#BCC8DC;}
.st73{clip-path:url(#SVGID_114_);fill:#B4E3ED;}
</style>
<g><g><g><g>
<defs><rect id="SVGID_1_" width="1920" height="237.4"/></defs>
<clipPath id="SVGID_2_"><use xlink:href="#SVGID_1_" style="overflow:visible;"/></clipPath>
<rect y="-318.1" class="st0" width="1920" height="1080"/>
</g></g>
<g><g>
<defs><rect id="SVGID_3_" width="1920" height="237.4"/></defs>
<clipPath id="SVGID_4_"><use xlink:href="#SVGID_3_" style="overflow:visible;"/></clipPath>
<linearGradient id="SVGID_5_" gradientUnits="userSpaceOnUse" x1="674.1487" y1="1155.3442" x2="1245.8513" y2="-415.3959" gradientTransform="matrix(1 0 0 -1 0 591.8742)">
<stop offset="0.3" style="stop-color:#2DABE2;stop-opacity:0.8"/>
<stop offset="1" style="stop-color:#CABDDD"/>
</linearGradient>
<rect y="-318.1" class="st1" width="1920" height="1080"/>
</g></g>
<g class="st2"><g class="st3">
<defs><rect id="SVGID_6_" width="1920" height="237.4"/></defs>
<clipPath id="SVGID_7_"><use xlink:href="#SVGID_6_" style="overflow:visible;"/></clipPath>
<g class="st4">
<path class="st5" d="M1283.3,689.5l-230.9,177.1c-41.7,32-101.9,24-133.8-17.6l0,0c-32-41.7-24-101.9,17.6-133.8l230.9-177.1
c41.7-32,101.9-24,133.8,17.6l0,0C1332.9,597.3,1325,657.5,1283.3,689.5z"/>
<path class="st6" d="M1381.2,706.8L984.3,1019c-19.7,15.5-48.3,11.7-63.4-8.5l0,0c-15.2-20.2-11.4-49.5,8.3-65L1326,633.3
c19.7-15.6,48.3-11.7,63.4,8.5l0,0C1404.7,662,1400.9,691.3,1381.2,706.8z"/>
<path class="st7" d="M437.9,100.3L252.5,242.5c-38.4,29.4-93.9,22.1-123.3-16.2l0,0c-29.4-38.4-22.1-93.9,16.2-123.3
L330.7-39.2C369.1-68.6,424.6-61.3,454-23l0,0C483.5,15.3,476.2,70.8,437.9,100.3z"/>
<path class="st8" d="M606.2-186.8L215,113.3c-29.6,22.8-72.5,17.1-95.3-12.5l0,0c-22.8-29.6-17.1-72.5,12.5-95.3l391.3-300.1
c29.6-22.8,72.5-17.2,95.2,12.5l0,0C641.5-252.5,635.8-209.6,606.2-186.8z"/>
<path class="st9" d="M1101.2,615.8L727.6,902.5c-11,8.5-27,6.4-35.4-4.7l0,0c-8.5-11-6.4-27,4.7-35.4l373.6-286.7
c11-8.5,27-6.4,35.4,4.7l0,0C1114.3,591.4,1112.2,607.3,1101.2,615.8z"/>
<path class="st10" d="M571.5,673.8L239,928.9c-25.8,19.8-63.2,14.9-83-10.9l0,0c-19.8-25.8-14.9-63.2,10.9-83l332.5-255.2
c25.8-19.8,63.2-14.9,83,10.9l0,0C602.2,616.6,597.3,654,571.5,673.8z"/>
<path class="st11" d="M1394.2-299L965.1,30.3c-21.3,16.4-52.2,12.3-68.5-9l0,0c-16.4-21.3-12.3-52.2,9-68.5l429.1-329.3
c21.3-16.4,52.2-12.3,68.5,9l0,0C1419.6-346.2,1415.5-315.3,1394.2-299z"/>
<path class="st12" d="M471.2,654.5L159.6,893.6c-53.7,41.2-131.4,31-172.6-22.7l0,0c-41.2-53.7-31-131.4,22.7-172.6
l311.6-239.1c26.9-20.6,59.7-28.4,91-24.2c25.7,3.4,45.7,15.4,48.3,17c12.2,7.5,20.9,16.1,23.1,18.3c4.3,4.4,7.7,8.4,10.2,11.7
l0,0C535.1,535.6,524.9,613.3,471.2,654.5z"/>
<path class="st13" d="M1856.3,502.8l-285.3,219c-31.5,24.2-77.1,18.2-101.2-13.3l0,0c-24.2-31.5-18.2-77.1,13.3-101.2
l285.3-219c31.5-24.2,77.1-18.2,101.2,13.3l0,0C1893.8,433,1887.8,478.6,1856.3,502.8z"/>
<path class="st14" d="M1994.2,233.9l-465.9,357.5c-11.3,8.7-27.7,6.5-36.5-4.8l0,0c-8.7-11.3-6.5-27.7,4.8-36.5l465.9-357.5
c11.3-8.7,27.7-6.5,36.5,4.8l0,0C2007.7,208.8,2005.5,225.2,1994.2,233.9z"/>
<path class="st15" d="M1526.9,85.6l-482.5,370.3c-18.9,14.5-46.2,10.9-60.7-8l-3.4-4.4c-14.5-18.9-10.9-46.2,8-60.7
l482.5-370.3c18.9-14.5,46.2-10.9,60.7,8l3.4,4.4C1549.4,43.8,1545.8,71.1,1526.9,85.6z"/>
<linearGradient id="SVGID_8_" gradientUnits="userSpaceOnUse" x1="1408.7347" y1="100.1" x2="1732.7653" y2="100.1" gradientTransform="matrix(1 0 0 1 0 148)">
<stop offset="0" style="stop-color:#A6C2DD;stop-opacity:0"/>
<stop offset="0.5025" style="stop-color:#A6C2DD;stop-opacity:0.7"/>
<stop offset="1" style="stop-color:#A6C2DD;stop-opacity:0"/>
</linearGradient>
<line class="st16" x1="1413.3" y1="368.9" x2="1728.2" y2="127.3"/>
<linearGradient id="SVGID_9_" gradientUnits="userSpaceOnUse" x1="1349.2216" y1="-321.1" x2="1675.0784" y2="-321.1" gradientTransform="matrix(1 0 0 1 0 148)">
<stop offset="0" style="stop-color:#A6C2DD;stop-opacity:0"/>
<stop offset="0.5025" style="stop-color:#F9EBDC;stop-opacity:0.5"/>
<stop offset="1" style="stop-color:#A6C2DD;stop-opacity:0"/>
</linearGradient>
<line class="st17" x1="1354.7" y1="-52.3" x2="1669.6" y2="-293.9"/>
<linearGradient id="SVGID_10_" gradientUnits="userSpaceOnUse" x1="153.4279" y1="253.0363" x2="479.2597" y2="253.0363" gradientTransform="matrix(0.8575 0.1093 0.1093 0.9161 285.7783 -71.2329)">
<stop offset="0" style="stop-color:#A6C2DD;stop-opacity:0"/>
<stop offset="0.5025" style="stop-color:#BCC8DC;stop-opacity:0.5"/>
<stop offset="1" style="stop-color:#A6C2DD;stop-opacity:0"/>
</linearGradient>
<line class="st18" x1="462.9" y1="288.6" x2="706.5" y2="101.7"/>
<g><g><g>
<defs><rect id="SVGID_11_" x="647" y="48.8" width="581.6" height="240.4"/></defs>
<clipPath id="SVGID_12_"><use xlink:href="#SVGID_11_" style="overflow:visible;"/></clipPath>
<g class="st19">
<path class="st20" d="M1176.4,299.9L779.6,612.1c-19.7,15.6-48.3,11.7-63.4-8.5c-15.2-20.2-11.4-49.5,8.3-65l396.8-312.2
c24.1-11.9,50.4-7.4,63.4,8.5c9.7,11.9,9,26.8,8.5,31.9c-0.4,1.7-1.5,7.2,1.5,12.3c2.4,3.9,6.1,5.6,9.5,7
c8,3.4,14.1,2.4,14.3,3.2C1218.7,290.2,1210,293,1176.4,299.9z"/>
<path class="st20" d="M1078.5,282.6L847.6,459.7c-41.7,32-101.9,24-133.8-17.6l0,0c-32-41.7-24-101.9,17.6-133.8
l230.9-177.1c41.7-32,101.9-24,133.8,17.6l0,0C1128.1,190.4,1120.2,250.6,1078.5,282.6z"/>
<path class="st20" d="M903.4,192.2L529.8,478.9c-11,8.5-27,6.4-35.4-4.7c-8.5-11-6.4-27,4.7-35.4
c98.8-106.4,147.8-140.2,174.2-149.5c0.4-0.1,3.1-1,6.8-2.4c17.9-6.8,30.4-14.9,36.5-18.9c24.9-16.3,37.4-24.5,50.2-34.6
c61.6-48.9,76-58.4,105.9-81.3c11-8.4,27-6.3,35.4,4.7C916.5,167.8,914.4,183.7,903.4,192.2z"/>
</g></g>
<g><g><g>
<defs><rect id="SVGID_13_" x="642.3" y="128.6" width="581.6" height="160.6"/></defs>
<clipPath id="SVGID_14_"><use xlink:href="#SVGID_13_" style="overflow:visible;"/></clipPath>
<g class="st21">
<path class="st22" d="M1171.8,296.3L774.9,505c-19.7,10.4-48.3,7.8-63.4-5.7c-15.2-13.5-11.4-33.1,8.3-43.4l396.8-208.6
c24.1-8,50.4-5,63.4,5.7c9.7,8,9,17.9,8.5,21.3c-0.4,1.1-1.5,4.8,1.5,8.2c2.4,2.6,6.1,3.7,9.5,4.7
c8,2.3,14.1,1.6,14.3,2.1C1214,289.9,1205.3,291.7,1171.8,296.3z"/>
<path class="st22" d="M1073.9,284.8L843,403.2c-41.7,21.4-101.9,16-133.8-11.8l0,0c-32-27.9-24-68.1,17.6-89.4
l230.9-118.3c41.7-21.4,101.9-16,133.8,11.8l0,0C1123.5,223.2,1115.6,263.4,1073.9,284.8z"/>
<path class="st22" d="M898.7,224.4L525.1,415.9c-11,5.7-27,4.3-35.4-3.1c-8.5-7.3-6.4-18,4.7-23.7
c98.8-71.1,147.8-93.7,174.2-99.9c0.4-0.1,3.1-0.7,6.8-1.6c17.9-4.5,30.4-9.9,36.5-12.6c24.9-10.9,37.4-16.4,50.2-23.1
c61.6-32.6,76-39,105.9-54.3c11-5.6,27-4.2,35.4,3.1C911.9,208.1,909.7,218.7,898.7,224.4z"/>
</g></g>
<g><g><g>
<defs><rect id="SVGID_15_" x="1247.3" y="-57.2" width="761.9" height="167.2"/></defs>
<defs><rect id="SVGID_16_" x="1247.3" y="-57.2" width="761.9" height="167.2"/></defs>
<defs><rect id="SVGID_17_" x="1247.3" y="-57.2" width="761.9" height="167.2"/></defs>
<defs><rect id="SVGID_18_" x="1247.3" y="-57.2" width="761.9" height="167.2"/></defs>
<defs><rect id="SVGID_19_" x="1247.3" y="-57.2" width="761.9" height="167.2"/></defs>
<defs><rect id="SVGID_20_" x="1247.3" y="-57.2" width="761.9" height="167.2"/></defs>
<defs><rect id="SVGID_21_" x="1247.3" y="-57.2" width="761.9" height="167.2"/></defs>
<defs><rect id="SVGID_22_" x="1247.3" y="-57.2" width="761.9" height="167.2"/></defs>
<defs><rect id="SVGID_23_" x="1247.3" y="-57.2" width="761.9" height="167.2"/></defs>
<defs><rect id="SVGID_24_" x="1247.3" y="-57.2" width="761.9" height="167.2"/></defs>
<defs><rect id="SVGID_25_" x="1247.3" y="-57.2" width="761.9" height="167.2"/></defs>
<defs><rect id="SVGID_26_" x="1247.3" y="-57.2" width="761.9" height="167.2"/></defs>
<defs><rect id="SVGID_27_" x="1247.3" y="-57.2" width="761.9" height="167.2"/></defs>
<defs><rect id="SVGID_28_" x="1247.3" y="-57.2" width="761.9" height="167.2"/></defs>
<defs><rect id="SVGID_29_" x="1247.3" y="-57.2" width="761.9" height="167.2"/></defs>
<defs><rect id="SVGID_30_" x="1247.3" y="-57.2" width="761.9" height="167.2"/></defs>
<defs><rect id="SVGID_31_" x="1247.3" y="-57.2" width="761.9" height="167.2"/></defs>
<defs><rect id="SVGID_32_" x="1247.3" y="-57.2" width="761.9" height="167.2"/></defs>
<defs><rect id="SVGID_33_" x="1247.3" y="-57.2" width="761.9" height="167.2"/></defs>
<defs><rect id="SVGID_34_" x="1247.3" y="-57.2" width="761.9" height="167.2"/></defs>
<defs><rect id="SVGID_35_" x="1247.3" y="-57.2" width="761.9" height="167.2"/></defs>
<defs><rect id="SVGID_36_" x="1247.3" y="-57.2" width="761.9" height="167.2"/></defs>
<clipPath id="SVGID_37_"><use xlink:href="#SVGID_15_" style="overflow:visible;"/></clipPath>
<clipPath id="SVGID_38_" class="st23"><use xlink:href="#SVGID_16_" style="overflow:visible;"/></clipPath>
<clipPath id="SVGID_39_" class="st24"><use xlink:href="#SVGID_17_" style="overflow:visible;"/></clipPath>
<clipPath id="SVGID_40_" class="st25"><use xlink:href="#SVGID_18_" style="overflow:visible;"/></clipPath>
<clipPath id="SVGID_41_" class="st26"><use xlink:href="#SVGID_19_" style="overflow:visible;"/></clipPath>
<clipPath id="SVGID_42_" class="st27"><use xlink:href="#SVGID_20_" style="overflow:visible;"/></clipPath>
<clipPath id="SVGID_43_" class="st28"><use xlink:href="#SVGID_21_" style="overflow:visible;"/></clipPath>
<clipPath id="SVGID_44_" class="st29"><use xlink:href="#SVGID_22_" style="overflow:visible;"/></clipPath>
<clipPath id="SVGID_45_" class="st30"><use xlink:href="#SVGID_23_" style="overflow:visible;"/></clipPath>
<clipPath id="SVGID_46_" class="st31"><use xlink:href="#SVGID_24_" style="overflow:visible;"/></clipPath>
<clipPath id="SVGID_47_" class="st32"><use xlink:href="#SVGID_25_" style="overflow:visible;"/></clipPath>
<clipPath id="SVGID_48_" class="st33"><use xlink:href="#SVGID_26_" style="overflow:visible;"/></clipPath>
<clipPath id="SVGID_49_" class="st34"><use xlink:href="#SVGID_27_" style="overflow:visible;"/></clipPath>
<clipPath id="SVGID_50_" class="st35"><use xlink:href="#SVGID_28_" style="overflow:visible;"/></clipPath>
<clipPath id="SVGID_51_" class="st36"><use xlink:href="#SVGID_29_" style="overflow:visible;"/></clipPath>
<clipPath id="SVGID_52_" class="st37"><use xlink:href="#SVGID_30_" style="overflow:visible;"/></clipPath>
<clipPath id="SVGID_53_" class="st38"><use xlink:href="#SVGID_31_" style="overflow:visible;"/></clipPath>
<clipPath id="SVGID_54_" class="st39"><use xlink:href="#SVGID_32_" style="overflow:visible;"/></clipPath>
<clipPath id="SVGID_55_" class="st40"><use xlink:href="#SVGID_33_" style="overflow:visible;"/></clipPath>
<clipPath id="SVGID_56_" class="st41"><use xlink:href="#SVGID_34_" style="overflow:visible;"/></clipPath>
<clipPath id="SVGID_57_" class="st42"><use xlink:href="#SVGID_35_" style="overflow:visible;"/></clipPath>
<clipPath id="SVGID_58_" class="st43"><use xlink:href="#SVGID_36_" style="overflow:visible;"/></clipPath>
<path class="st44" d="M1838.6,129.8L1604.4,278c-25.9,16.4-63.2,12.3-83.1-9l0,0c-19.8-21.3-14.9-52.2,10.9-68.6
l234.1-148.3c25.9-16.4,63.2-12.3,83.1,9l0,0c11.7,15.3,13,27.5,11.7,36.1c-0.1,0.3-0.1,0.7-0.2,1
c-0.2,1.1-0.5,4.1,1.6,7c0.5,0.7,1.7,2.3,4.1,3.5c1.5,0.7,2.9,1,3.8,1.1C1859.9,116.6,1849.2,123.2,1838.6,129.8z"/>
<path class="st44" d="M1788.4,56.6l-382.3,242.1c-9.3,5.9-22.8,4.4-29.9-3.2l0,0c-7.1-7.7-5.4-18.8,3.9-24.7
l382.3-242.1c9.3-5.9,22.8-4.4,29.9,3.2l0,0C1799.5,39.6,1797.7,50.7,1788.4,56.6z"/>
<path class="st44" d="M1736.4,93.1l-234.1,148.3c-25.9,16.4-63.2,12.3-83.1-9l0,0c-19.8-21.3-14.9-52.2,10.9-68.6
l234.1-148.3c25.9-16.4,63.2-12.3,83.1,9l0,0C1767.2,45.9,1762.3,76.7,1736.4,93.1z"/>
<path class="st44" d="M1606.5,118.5l-321,203.2c-24.3,15.4-59.5,11.6-78.2-8.5c-18.7-20-14-49.1,10.3-64.5
c135.6-101.6,191-137.6,202.9-138.7c0.9-0.1,7.8-0.6,16.4-3.2c8.6-2.7,15.3-6.4,20.1-9.6c27.2-17.2,54.4-34.5,81.7-51.7
c24.3-15.3,59.5-11.5,78.1,8.5C1635.5,74,1630.8,103.1,1606.5,118.5z"/>
</g>
<g><g class="st45"><g>
<defs><rect id="SVGID_59_" x="1286.4" y="18.2" width="683.6" height="91.8"/></defs>
<defs><rect id="SVGID_60_" x="1286.4" y="18.2" width="683.6" height="91.8"/></defs>
<defs><rect id="SVGID_61_" x="1286.4" y="18.2" width="683.6" height="91.8"/></defs>
<defs><rect id="SVGID_62_" x="1286.4" y="18.2" width="683.6" height="91.8"/></defs>
<defs><rect id="SVGID_63_" x="1286.4" y="18.2" width="683.6" height="91.8"/></defs>
<defs><rect id="SVGID_64_" x="1286.4" y="18.2" width="683.6" height="91.8"/></defs>
<defs><rect id="SVGID_65_" x="1286.4" y="18.2" width="683.6" height="91.8"/></defs>
<defs><rect id="SVGID_66_" x="1286.4" y="18.2" width="683.6" height="91.8"/></defs>
<defs><rect id="SVGID_67_" x="1286.4" y="18.2" width="683.6" height="91.8"/></defs>
<defs><rect id="SVGID_68_" x="1286.4" y="18.2" width="683.6" height="91.8"/></defs>
<defs><rect id="SVGID_69_" x="1286.4" y="18.2" width="683.6" height="91.8"/></defs>
<defs><rect id="SVGID_70_" x="1286.4" y="18.2" width="683.6" height="91.8"/></defs>
<defs><rect id="SVGID_71_" x="1286.4" y="18.2" width="683.6" height="91.8"/></defs>
<defs><rect id="SVGID_72_" x="1286.4" y="18.2" width="683.6" height="91.8"/></defs>
<defs><rect id="SVGID_73_" x="1286.4" y="18.2" width="683.6" height="91.8"/></defs>
<defs><rect id="SVGID_74_" x="1286.4" y="18.2" width="683.6" height="91.8"/></defs>
<defs><rect id="SVGID_75_" x="1286.4" y="18.2" width="683.6" height="91.8"/></defs>
<defs><rect id="SVGID_76_" x="1286.4" y="18.2" width="683.6" height="91.8"/></defs>
<defs><rect id="SVGID_77_" x="1286.4" y="18.2" width="683.6" height="91.8"/></defs>
<defs><rect id="SVGID_78_" x="1286.4" y="18.2" width="683.6" height="91.8"/></defs>
<defs><rect id="SVGID_79_" x="1286.4" y="18.2" width="683.6" height="91.8"/></defs>
<defs><rect id="SVGID_80_" x="1286.4" y="18.2" width="683.6" height="91.8"/></defs>
<clipPath id="SVGID_81_"><use xlink:href="#SVGID_59_" style="overflow:visible;"/></clipPath>
<clipPath id="SVGID_82_" class="st46"><use xlink:href="#SVGID_60_" style="overflow:visible;"/></clipPath>
<clipPath id="SVGID_83_" class="st47"><use xlink:href="#SVGID_61_" style="overflow:visible;"/></clipPath>
<clipPath id="SVGID_84_" class="st48"><use xlink:href="#SVGID_62_" style="overflow:visible;"/></clipPath>
<clipPath id="SVGID_85_" class="st49"><use xlink:href="#SVGID_63_" style="overflow:visible;"/></clipPath>
<clipPath id="SVGID_86_" class="st50"><use xlink:href="#SVGID_64_" style="overflow:visible;"/></clipPath>
<clipPath id="SVGID_87_" class="st51"><use xlink:href="#SVGID_65_" style="overflow:visible;"/></clipPath>
<clipPath id="SVGID_88_" class="st52"><use xlink:href="#SVGID_66_" style="overflow:visible;"/></clipPath>
<clipPath id="SVGID_89_" class="st53"><use xlink:href="#SVGID_67_" style="overflow:visible;"/></clipPath>
<clipPath id="SVGID_90_" class="st54"><use xlink:href="#SVGID_68_" style="overflow:visible;"/></clipPath>
<clipPath id="SVGID_91_" class="st55"><use xlink:href="#SVGID_69_" style="overflow:visible;"/></clipPath>
<clipPath id="SVGID_92_" class="st56"><use xlink:href="#SVGID_70_" style="overflow:visible;"/></clipPath>
<clipPath id="SVGID_93_" class="st57"><use xlink:href="#SVGID_71_" style="overflow:visible;"/></clipPath>
<clipPath id="SVGID_94_" class="st58"><use xlink:href="#SVGID_72_" style="overflow:visible;"/></clipPath>
<clipPath id="SVGID_95_" class="st59"><use xlink:href="#SVGID_73_" style="overflow:visible;"/></clipPath>
<clipPath id="SVGID_96_" class="st60"><use xlink:href="#SVGID_74_" style="overflow:visible;"/></clipPath>
<clipPath id="SVGID_97_" class="st61"><use xlink:href="#SVGID_75_" style="overflow:visible;"/></clipPath>
<clipPath id="SVGID_98_" class="st62"><use xlink:href="#SVGID_76_" style="overflow:visible;"/></clipPath>
<clipPath id="SVGID_99_" class="st63"><use xlink:href="#SVGID_77_" style="overflow:visible;"/></clipPath>
<clipPath id="SVGID_100_" class="st64"><use xlink:href="#SVGID_78_" style="overflow:visible;"/></clipPath>
<clipPath id="SVGID_101_" class="st65"><use xlink:href="#SVGID_79_" style="overflow:visible;"/></clipPath>
<clipPath id="SVGID_102_" class="st66"><use xlink:href="#SVGID_80_" style="overflow:visible;"/></clipPath>
<path class="st67" d="M1817,120.9l-210.1,81.4c-23.2,9-56.7,6.8-74.5-5l0,0c-17.8-11.7-13.4-28.7,9.8-37.7l210.1-81.4
c23.2-9,56.7-6.8,74.5,5l0,0c10.5,8.4,11.7,15.1,10.5,19.8c0,0.2-0.1,0.4-0.1,0.5c-0.2,0.6-0.4,2.3,1.4,3.9
c0.5,0.4,1.5,1.3,3.7,1.9c1.3,0.4,2.6,0.6,3.4,0.6C1836.1,113.6,1826.5,117.2,1817,120.9z"/>
<path class="st67" d="M1771.9,80.7l-343,133c-8.4,3.2-20.4,2.4-26.8-1.8l0,0c-6.4-4.2-4.8-10.3,3.5-13.6l343-133
c8.4-3.2,20.4-2.4,26.8,1.8l0,0C1781.9,71.3,1780.3,77.4,1771.9,80.7z"/>
<path class="st67" d="M1725.3,100.7l-210.1,81.4c-23.2,9-56.7,6.8-74.5-5l0,0c-17.8-11.7-13.4-28.7,9.8-37.7
L1660.6,58c23.2-9,56.7-6.8,74.5,5l0,0C1752.9,74.8,1748.5,91.7,1725.3,100.7z"/>
<path class="st67" d="M1608.8,114.7l-288,111.6c-21.8,8.5-53.4,6.4-70.2-4.6c-16.8-11-12.6-27,9.2-35.4
c121.7-55.8,171.4-75.6,182.1-76.2c0.8,0,7-0.3,14.7-1.8c7.8-1.5,13.7-3.5,18-5.3c24.4-9.5,48.8-18.9,73.3-28.4
c21.8-8.4,53.4-6.3,70.1,4.6C1634.7,90.3,1630.5,106.2,1608.8,114.7z"/>
</g></g>
<g><g>
<defs><rect id="SVGID_103_" width="1920" height="237.4"/></defs>
<clipPath id="SVGID_104_"><use xlink:href="#SVGID_103_" style="overflow:visible;"/></clipPath>
<path class="st68" d="M1351.6-314.6l-255.8,195.5c-12.7,9.7-31.1,7.3-40.8-5.3l0,0c-9.8-12.6-7.3-31,5.4-40.7
l255.8-195.5c12.7-9.7,31.1-7.3,40.8,5.3l0,0C1366.8-342.6,1364.3-324.3,1351.6-314.6z"/>
</g>
<g><g>
<defs><rect id="SVGID_105_" width="1920" height="237.4"/></defs>
<clipPath id="SVGID_106_"><use xlink:href="#SVGID_105_" style="overflow:visible;"/></clipPath>
<path class="st69" d="M414.2,574.4L226.8,718.2c-32.2,24.7-78.7,18.6-103.4-13.6l0,0
c-24.7-32.2-18.6-78.7,13.6-103.4l187.4-143.8c32.2-24.7,78.7-18.6,103.4,13.6l0,0
C452.5,503.2,446.4,549.7,414.2,574.4z"/>
</g>
<g><g>
<defs><rect id="SVGID_107_" width="1920" height="237.4"/></defs>
<clipPath id="SVGID_108_"><use xlink:href="#SVGID_107_" style="overflow:visible;"/></clipPath>
<path class="st70" d="M572.9-225.9L330.4-39.4c-18.3,14.2-44.9,10.6-59.1-7.8l0,0c-14.1-18.4-10.6-45,7.7-59.2
l242.6-186.5c18.3-14.2,44.9-10.7,59,7.8l0,0C594.8-266.7,591.3-240.1,572.9-225.9z"/>
</g>
<g><g>
<defs><rect id="SVGID_109_" width="1920" height="237.4"/></defs>
<clipPath id="SVGID_110_"><use xlink:href="#SVGID_109_" style="overflow:visible;"/></clipPath>
<path class="st71" d="M1986.4,212l-382.7,293.6c-6.5,5-16,3.8-21-2.8l0,0c-5-6.5-3.8-16,2.8-21l382.7-293.6
c6.5-5,16-3.8,21,2.8l0,0C1994.1,197.5,1992.9,207,1986.4,212z"/>
</g>
<g id="Layer_2"><g>
<defs><rect id="SVGID_111_" width="1920" height="237.4"/></defs>
<clipPath id="SVGID_112_"><use xlink:href="#SVGID_111_" style="overflow:visible;"/></clipPath>
<path class="st72" d="M1088.9,605.3L832.8,801.7c-7.5,5.8-18.5,4.4-24.3-3.2l0,0c-5.8-7.5-4.4-18.5,3.2-24.3
l256.1-196.4c7.5-5.8,18.5-4.4,24.3,3.2l0,0C1097.9,588.6,1096.5,599.5,1088.9,605.3z"/>
</g>
<g><g>
<defs><rect id="SVGID_113_" width="1920" height="237.4"/></defs>
<clipPath id="SVGID_114_"><use xlink:href="#SVGID_113_" style="overflow:visible;"/></clipPath>
<path class="st73" d="M1360.1,678.8l-245.6,193.7c-12.2,9.6-29.9,7.2-39.2-5.3l0,0c-9.4-12.5-7-30.7,5.2-40.3
L1326,633.2c12.2-9.6,29.9-7.2,39.2,5.3l0,0C1374.6,651,1372.3,669.2,1360.1,678.8z"/>
</g></g></g></g></g></g></g></g></g></g></g></g></g></g></g></g></g></g></g></svg>